<svg width="348" height="224" viewBox="0 0 348 224" fill="none" xmlns="http://www.w3.org/2000/svg">
<path fill-rule="evenodd" clip-rule="evenodd" d="M250.602 3.09472C253.966 -1.03157 259.42 -1.03157 262.784 3.09472L345.477 104.529C348.841 108.655 348.841 115.345 345.477 119.471C342.113 123.598 336.659 123.598 333.295 119.471L256.693 25.5087L97.3979 220.905C94.0339 225.032 88.5799 225.032 85.216 220.905L2.52294 119.471C-0.840981 115.345 -0.840981 108.655 2.52294 104.529C5.88686 100.402 11.3409 100.402 14.7048 104.529L91.3069 198.491L250.602 3.09472Z" fill="white"/>
<path fill-rule="evenodd" clip-rule="evenodd" d="M4.47207 5.48576C6.75954 2.67988 10.4683 2.67988 12.7557 5.48576L91.307 101.839L169.858 5.48576C172.146 2.67988 175.854 2.67988 178.142 5.48576C180.429 8.29164 180.429 12.8409 178.142 15.6467L95.4488 117.081C93.1613 119.887 89.4526 119.887 87.1651 117.081L4.47207 15.6467C2.1846 12.8409 2.1846 8.29164 4.47207 5.48576Z" fill="white"/>
<path fill-rule="evenodd" clip-rule="evenodd" d="M343.528 218.514C341.24 221.32 337.532 221.32 335.244 218.514L256.693 122.161L178.142 218.514C175.854 221.32 172.146 221.32 169.858 218.514C167.571 215.708 167.571 211.159 169.858 208.353L252.551 106.919C254.839 104.113 258.547 104.113 260.835 106.919L343.528 208.353C345.815 211.159 345.815 215.708 343.528 218.514Z" fill="white"/>
</svg>
