<svg width="895" height="252" viewBox="0 0 895 252" fill="none" xmlns="http://www.w3.org/2000/svg">
<mask id="path-1-inside-1_8322_7965" fill="white">
<path fill-rule="evenodd" clip-rule="evenodd" d="M282.801 3.48156C286.597 -1.16052 292.752 -1.16052 296.548 3.48156L389.866 117.595C393.662 122.237 393.662 129.763 389.866 134.405C386.07 139.047 379.915 139.047 376.119 134.405L289.674 28.6973L109.912 248.518C106.116 253.161 99.9611 253.161 96.165 248.518L2.8471 134.405C-0.949034 129.763 -0.949034 122.237 2.8471 117.595C6.64324 112.953 12.798 112.953 16.5941 117.595L103.038 223.303L282.801 3.48156Z"/>
<path fill-rule="evenodd" clip-rule="evenodd" d="M5.04663 6.17124C7.628 3.01462 11.8132 3.01462 14.3946 6.17124L103.038 114.569L191.682 6.17124C194.264 3.01462 198.449 3.01462 201.03 6.17124C203.612 9.32785 203.612 14.4457 201.03 17.6024L107.712 131.716C105.131 134.872 100.946 134.872 98.3645 131.716L5.04663 17.6024C2.46525 14.4457 2.46525 9.32785 5.04663 6.17124Z"/>
<path fill-rule="evenodd" clip-rule="evenodd" d="M387.666 245.829C385.085 248.985 380.9 248.985 378.318 245.829L289.674 137.431L201.03 245.829C198.449 248.985 194.264 248.985 191.682 245.829C189.101 242.672 189.101 237.554 191.682 234.398L285 120.284C287.582 117.128 291.767 117.128 294.348 120.284L387.666 234.398C390.248 237.554 390.248 242.672 387.666 245.829Z"/>
<path d="M541.944 19.273C555.195 19.273 564.781 22.307 570.702 28.3752C576.623 34.3022 579.584 42.6989 579.584 53.5651C579.584 63.8669 576.694 71.8402 570.914 77.485C565.134 82.9886 555.407 85.7405 541.732 85.7405H488.656V93.7843C488.656 98.3002 489.924 102.04 492.462 105.003C495.14 107.826 499.581 109.237 505.784 109.237H574.086V131.04H505.784C498.735 131.04 492.744 130.123 487.81 128.288C483.017 126.454 478.999 123.913 475.756 120.668C472.655 117.281 470.399 113.4 468.99 109.025C467.58 104.509 466.875 99.5702 466.875 94.2077V56.1053C466.875 50.8838 467.58 46.0152 468.99 41.4994C470.399 36.9835 472.655 33.1027 475.756 29.857C478.999 26.4701 483.017 23.8594 487.81 22.0248C492.744 20.1902 498.735 19.273 505.784 19.273H541.944ZM488.656 68.171H541.098C547.16 68.171 551.389 66.9715 553.785 64.5725C556.323 62.1734 557.592 58.9277 557.592 54.8352C557.592 50.6016 556.323 47.2147 553.785 44.6746C551.248 42.1344 547.23 40.8643 541.732 40.8643H505.784C499.581 40.8643 495.14 42.3461 492.462 45.3096C489.924 48.2731 488.656 51.9422 488.656 56.317V68.171Z"/>
<path d="M615.081 22.176L648.109 109.751C649.076 112.224 650.848 113.46 653.426 113.46C655.896 113.46 657.669 112.224 658.743 109.751L693.382 22.176H714.488L676.143 118.944C674.102 124.105 671.202 127.761 667.443 129.911C663.791 131.954 659.119 132.975 653.426 132.975C648.055 132.975 643.383 132.008 639.409 130.072C635.542 128.029 632.589 124.32 630.548 118.944L594.136 22.176H615.081Z"/>
<path d="M749.639 22.176V131.04H730.628V22.176H749.639Z"/>
<path d="M786.736 131.04H765.791L803.975 34.272C806.015 29.111 808.862 25.5091 812.514 23.4662C816.273 21.3158 821.053 20.2406 826.853 20.2406C832.545 20.2406 837.218 21.3158 840.87 23.4662C844.629 25.5091 847.475 29.111 849.409 34.272L886.142 131.04H865.036L832.008 43.465C831.042 40.992 829.269 39.7555 826.692 39.7555C824.114 39.7555 822.288 40.992 821.214 43.465L786.736 131.04Z"/>
<path d="M472.167 241.92H460.879V190.21C460.879 185.996 462.09 182.613 464.514 180.059C466.937 177.442 470.668 176.133 475.706 176.133C480.17 176.133 483.55 177.218 485.846 179.389C488.206 181.495 490.055 184.4 491.394 188.103L510.24 229.375C510.622 230.142 511.132 230.78 511.77 231.291C512.408 231.801 513.269 232.057 514.353 232.057C515.565 232.057 516.489 231.738 517.127 231.099C517.829 230.397 518.179 229.503 518.179 228.418V177.282H529.563V228.897C529.563 233.174 528.32 236.621 525.832 239.239C523.409 241.792 519.71 243.069 514.736 243.069C512.504 243.069 510.527 242.782 508.805 242.207C507.147 241.697 505.68 240.93 504.404 239.909C503.193 238.824 502.14 237.547 501.247 236.079C500.355 234.61 499.589 232.95 498.952 231.099L480.106 189.827C479.277 187.975 477.938 187.05 476.089 187.05C474.813 187.05 473.825 187.401 473.123 188.103C472.485 188.741 472.167 189.635 472.167 190.784V241.92Z"/>
<path d="M577.385 191.359C583.379 191.359 587.716 192.731 590.394 195.476C593.073 198.158 594.412 201.956 594.412 206.872C594.412 211.532 593.105 215.139 590.49 217.693C587.875 220.182 583.475 221.427 577.289 221.427H553.278V225.066C553.278 227.109 553.852 228.801 555 230.142C556.212 231.418 558.221 232.057 561.027 232.057H591.925V241.92H561.027C557.838 241.92 555.128 241.505 552.895 240.675C550.727 239.845 548.909 238.696 547.443 237.228C546.04 235.696 545.019 233.94 544.382 231.961C543.744 229.918 543.425 227.684 543.425 225.258V208.021C543.425 205.659 543.744 203.456 544.382 201.414C545.019 199.371 546.04 197.615 547.443 196.147C548.909 194.615 550.727 193.434 552.895 192.604C555.128 191.774 557.838 191.359 561.027 191.359H577.385ZM553.278 213.479H577.002C579.744 213.479 581.657 212.937 582.742 211.851C583.889 210.766 584.463 209.298 584.463 207.446C584.463 205.531 583.889 203.999 582.742 202.85C581.594 201.701 579.776 201.126 577.289 201.126H561.027C558.221 201.126 556.212 201.797 555 203.137C553.852 204.478 553.278 206.138 553.278 208.117V213.479Z"/>
<path d="M608.698 191.359V179.389H618.934V191.359H632.901V201.126H618.934V225.066C618.934 227.939 619.444 229.918 620.465 231.003C621.549 232.089 623.303 232.631 625.726 232.631H632.709V241.92H623.622C621.007 241.92 618.743 241.633 616.83 241.058C614.98 240.484 613.45 239.526 612.238 238.185C611.026 236.845 610.133 235.057 609.559 232.823C608.985 230.588 608.698 227.811 608.698 224.492V201.126H601.811V191.359H608.698Z"/>
<path d="M651.223 191.359L655.719 230.812C655.846 231.897 656.165 232.727 656.675 233.302C657.249 233.812 658.142 234.068 659.354 234.068C660.502 234.068 661.331 233.844 661.841 233.397C662.415 232.887 662.83 232.184 663.085 231.291L670.259 200.647C671.025 197.264 672.523 194.71 674.755 192.987C676.987 191.263 680.112 190.401 684.13 190.401C688.148 190.401 691.209 191.263 693.313 192.987C695.418 194.71 696.853 197.264 697.618 200.647L704.41 231.291C704.793 233.142 706.068 234.068 708.237 234.068C709.384 234.068 710.214 233.812 710.724 233.302C711.234 232.727 711.553 231.897 711.68 230.812L716.942 191.359H727.943L722.299 231.386C721.788 234.898 720.449 237.738 718.281 239.909C716.113 242.016 712.733 243.069 708.141 243.069C704.187 243.069 701.126 242.207 698.957 240.484C696.789 238.76 695.322 236.142 694.557 232.631L687.765 201.892C687.574 200.999 687.127 200.36 686.426 199.977C685.788 199.594 684.991 199.403 684.034 199.403C681.93 199.403 680.686 200.232 680.304 201.892L673.129 232.631C672.3 236.142 670.769 238.76 668.537 240.484C666.305 242.207 663.18 243.069 659.163 243.069C656.803 243.069 654.794 242.782 653.136 242.207C651.542 241.633 650.202 240.835 649.118 239.813C648.098 238.792 647.301 237.579 646.727 236.174C646.153 234.706 645.738 233.11 645.483 231.386L640.222 191.359H651.223Z"/>
<path d="M768.174 191.359C774.87 191.359 780.195 193.465 784.149 197.679C788.103 201.828 790.08 208.149 790.08 216.639C790.08 225.194 788.103 231.546 784.149 235.696C780.195 239.845 774.87 241.92 768.174 241.92H757.556C750.796 241.92 745.439 239.845 741.485 235.696C737.594 231.546 735.649 225.194 735.649 216.639C735.649 208.085 737.594 201.733 741.485 197.583C745.439 193.434 750.796 191.359 757.556 191.359H768.174ZM758.512 201.126C754.112 201.126 750.891 202.339 748.851 204.765C746.874 207.191 745.885 211.149 745.885 216.639C745.885 222.13 746.874 226.088 748.851 228.514C750.891 230.876 754.112 232.057 758.512 232.057H767.217C771.618 232.057 774.807 230.876 776.784 228.514C778.824 226.088 779.845 222.13 779.845 216.639C779.845 211.149 778.824 207.191 776.784 204.765C774.807 202.339 771.618 201.126 767.217 201.126H758.512Z"/>
<path d="M836.562 191.359V201.126H818.769C814.432 201.126 812.264 203.297 812.264 207.638V241.92H802.124V206.106C802.124 200.999 803.144 197.264 805.185 194.902C807.29 192.54 810.829 191.359 815.803 191.359H836.562Z"/>
<path d="M856.64 169.43V212.33H861.328C863.305 212.33 864.931 212.298 866.206 212.234C867.545 212.107 868.661 211.851 869.554 211.468C870.447 211.085 871.212 210.511 871.85 209.745C872.488 208.979 873.189 207.925 873.955 206.585L882.373 191.359H893.374L884.573 207.255C883.298 209.489 881.99 211.341 880.651 212.809C879.312 214.213 877.622 215.363 875.581 216.256C878.004 216.959 879.949 218.108 881.416 219.704C882.883 221.236 884.382 223.343 885.912 226.024L895 241.92H883.616L875.198 226.981C874.433 225.641 873.7 224.587 872.998 223.821C872.297 222.991 871.436 222.385 870.415 222.002C869.459 221.555 868.247 221.268 866.78 221.14C865.377 220.949 863.56 220.853 861.328 220.853H856.64V241.92H846.5V169.43H856.64Z"/>
</mask>
<path fill-rule="evenodd" clip-rule="evenodd" d="M282.801 3.48156C286.597 -1.16052 292.752 -1.16052 296.548 3.48156L389.866 117.595C393.662 122.237 393.662 129.763 389.866 134.405C386.07 139.047 379.915 139.047 376.119 134.405L289.674 28.6973L109.912 248.518C106.116 253.161 99.9611 253.161 96.165 248.518L2.8471 134.405C-0.949034 129.763 -0.949034 122.237 2.8471 117.595C6.64324 112.953 12.798 112.953 16.5941 117.595L103.038 223.303L282.801 3.48156Z" fill="#1C1C1C"/>
<path fill-rule="evenodd" clip-rule="evenodd" d="M5.04663 6.17124C7.628 3.01462 11.8132 3.01462 14.3946 6.17124L103.038 114.569L191.682 6.17124C194.264 3.01462 198.449 3.01462 201.03 6.17124C203.612 9.32785 203.612 14.4457 201.03 17.6024L107.712 131.716C105.131 134.872 100.946 134.872 98.3645 131.716L5.04663 17.6024C2.46525 14.4457 2.46525 9.32785 5.04663 6.17124Z" fill="black"/>
<path fill-rule="evenodd" clip-rule="evenodd" d="M387.666 245.829C385.085 248.985 380.9 248.985 378.318 245.829L289.674 137.431L201.03 245.829C198.449 248.985 194.264 248.985 191.682 245.829C189.101 242.672 189.101 237.554 191.682 234.398L285 120.284C287.582 117.128 291.767 117.128 294.348 120.284L387.666 234.398C390.248 237.554 390.248 242.672 387.666 245.829Z" fill="black"/>
<path d="M541.944 19.273C555.195 19.273 564.781 22.307 570.702 28.3752C576.623 34.3022 579.584 42.6989 579.584 53.5651C579.584 63.8669 576.694 71.8402 570.914 77.485C565.134 82.9886 555.407 85.7405 541.732 85.7405H488.656V93.7843C488.656 98.3002 489.924 102.04 492.462 105.003C495.14 107.826 499.581 109.237 505.784 109.237H574.086V131.04H505.784C498.735 131.04 492.744 130.123 487.81 128.288C483.017 126.454 478.999 123.913 475.756 120.668C472.655 117.281 470.399 113.4 468.99 109.025C467.58 104.509 466.875 99.5702 466.875 94.2077V56.1053C466.875 50.8838 467.58 46.0152 468.99 41.4994C470.399 36.9835 472.655 33.1027 475.756 29.857C478.999 26.4701 483.017 23.8594 487.81 22.0248C492.744 20.1902 498.735 19.273 505.784 19.273H541.944ZM488.656 68.171H541.098C547.16 68.171 551.389 66.9715 553.785 64.5725C556.323 62.1734 557.592 58.9277 557.592 54.8352C557.592 50.6016 556.323 47.2147 553.785 44.6746C551.248 42.1344 547.23 40.8643 541.732 40.8643H505.784C499.581 40.8643 495.14 42.3461 492.462 45.3096C489.924 48.2731 488.656 51.9422 488.656 56.317V68.171Z" fill="#1C1C1C"/>
<path d="M615.081 22.176L648.109 109.751C649.076 112.224 650.848 113.46 653.426 113.46C655.896 113.46 657.669 112.224 658.743 109.751L693.382 22.176H714.488L676.143 118.944C674.102 124.105 671.202 127.761 667.443 129.911C663.791 131.954 659.119 132.975 653.426 132.975C648.055 132.975 643.383 132.008 639.409 130.072C635.542 128.029 632.589 124.32 630.548 118.944L594.136 22.176H615.081Z" fill="#1C1C1C"/>
<path d="M749.639 22.176V131.04H730.628V22.176H749.639Z" fill="#1C1C1C"/>
<path d="M786.736 131.04H765.791L803.975 34.272C806.015 29.111 808.862 25.5091 812.514 23.4662C816.273 21.3158 821.053 20.2406 826.853 20.2406C832.545 20.2406 837.218 21.3158 840.87 23.4662C844.629 25.5091 847.475 29.111 849.409 34.272L886.142 131.04H865.036L832.008 43.465C831.042 40.992 829.269 39.7555 826.692 39.7555C824.114 39.7555 822.288 40.992 821.214 43.465L786.736 131.04Z" fill="#1C1C1C"/>
<path d="M472.167 241.92H460.879V190.21C460.879 185.996 462.09 182.613 464.514 180.059C466.937 177.442 470.668 176.133 475.706 176.133C480.17 176.133 483.55 177.218 485.846 179.389C488.206 181.495 490.055 184.4 491.394 188.103L510.24 229.375C510.622 230.142 511.132 230.78 511.77 231.291C512.408 231.801 513.269 232.057 514.353 232.057C515.565 232.057 516.489 231.738 517.127 231.099C517.829 230.397 518.179 229.503 518.179 228.418V177.282H529.563V228.897C529.563 233.174 528.32 236.621 525.832 239.239C523.409 241.792 519.71 243.069 514.736 243.069C512.504 243.069 510.527 242.782 508.805 242.207C507.147 241.697 505.68 240.93 504.404 239.909C503.193 238.824 502.14 237.547 501.247 236.079C500.355 234.61 499.589 232.95 498.952 231.099L480.106 189.827C479.277 187.975 477.938 187.05 476.089 187.05C474.813 187.05 473.825 187.401 473.123 188.103C472.485 188.741 472.167 189.635 472.167 190.784V241.92Z" fill="#1C1C1C"/>
<path d="M577.385 191.359C583.379 191.359 587.716 192.731 590.394 195.476C593.073 198.158 594.412 201.956 594.412 206.872C594.412 211.532 593.105 215.139 590.49 217.693C587.875 220.182 583.475 221.427 577.289 221.427H553.278V225.066C553.278 227.109 553.852 228.801 555 230.142C556.212 231.418 558.221 232.057 561.027 232.057H591.925V241.92H561.027C557.838 241.92 555.128 241.505 552.895 240.675C550.727 239.845 548.909 238.696 547.443 237.228C546.04 235.696 545.019 233.94 544.382 231.961C543.744 229.918 543.425 227.684 543.425 225.258V208.021C543.425 205.659 543.744 203.456 544.382 201.414C545.019 199.371 546.04 197.615 547.443 196.147C548.909 194.615 550.727 193.434 552.895 192.604C555.128 191.774 557.838 191.359 561.027 191.359H577.385ZM553.278 213.479H577.002C579.744 213.479 581.657 212.937 582.742 211.851C583.889 210.766 584.463 209.298 584.463 207.446C584.463 205.531 583.889 203.999 582.742 202.85C581.594 201.701 579.776 201.126 577.289 201.126H561.027C558.221 201.126 556.212 201.797 555 203.137C553.852 204.478 553.278 206.138 553.278 208.117V213.479Z" fill="#1C1C1C"/>
<path d="M608.698 191.359V179.389H618.934V191.359H632.901V201.126H618.934V225.066C618.934 227.939 619.444 229.918 620.465 231.003C621.549 232.089 623.303 232.631 625.726 232.631H632.709V241.92H623.622C621.007 241.92 618.743 241.633 616.83 241.058C614.98 240.484 613.45 239.526 612.238 238.185C611.026 236.845 610.133 235.057 609.559 232.823C608.985 230.588 608.698 227.811 608.698 224.492V201.126H601.811V191.359H608.698Z" fill="#1C1C1C"/>
<path d="M651.223 191.359L655.719 230.812C655.846 231.897 656.165 232.727 656.675 233.302C657.249 233.812 658.142 234.068 659.354 234.068C660.502 234.068 661.331 233.844 661.841 233.397C662.415 232.887 662.83 232.184 663.085 231.291L670.259 200.647C671.025 197.264 672.523 194.71 674.755 192.987C676.987 191.263 680.112 190.401 684.13 190.401C688.148 190.401 691.209 191.263 693.313 192.987C695.418 194.71 696.853 197.264 697.618 200.647L704.41 231.291C704.793 233.142 706.068 234.068 708.237 234.068C709.384 234.068 710.214 233.812 710.724 233.302C711.234 232.727 711.553 231.897 711.68 230.812L716.942 191.359H727.943L722.299 231.386C721.788 234.898 720.449 237.738 718.281 239.909C716.113 242.016 712.733 243.069 708.141 243.069C704.187 243.069 701.126 242.207 698.957 240.484C696.789 238.76 695.322 236.142 694.557 232.631L687.765 201.892C687.574 200.999 687.127 200.36 686.426 199.977C685.788 199.594 684.991 199.403 684.034 199.403C681.93 199.403 680.686 200.232 680.304 201.892L673.129 232.631C672.3 236.142 670.769 238.76 668.537 240.484C666.305 242.207 663.18 243.069 659.163 243.069C656.803 243.069 654.794 242.782 653.136 242.207C651.542 241.633 650.202 240.835 649.118 239.813C648.098 238.792 647.301 237.579 646.727 236.174C646.153 234.706 645.738 233.11 645.483 231.386L640.222 191.359H651.223Z" fill="#1C1C1C"/>
<path d="M768.174 191.359C774.87 191.359 780.195 193.465 784.149 197.679C788.103 201.828 790.08 208.149 790.08 216.639C790.08 225.194 788.103 231.546 784.149 235.696C780.195 239.845 774.87 241.92 768.174 241.92H757.556C750.796 241.92 745.439 239.845 741.485 235.696C737.594 231.546 735.649 225.194 735.649 216.639C735.649 208.085 737.594 201.733 741.485 197.583C745.439 193.434 750.796 191.359 757.556 191.359H768.174ZM758.512 201.126C754.112 201.126 750.891 202.339 748.851 204.765C746.874 207.191 745.885 211.149 745.885 216.639C745.885 222.13 746.874 226.088 748.851 228.514C750.891 230.876 754.112 232.057 758.512 232.057H767.217C771.618 232.057 774.807 230.876 776.784 228.514C778.824 226.088 779.845 222.13 779.845 216.639C779.845 211.149 778.824 207.191 776.784 204.765C774.807 202.339 771.618 201.126 767.217 201.126H758.512Z" fill="#1C1C1C"/>
<path d="M836.562 191.359V201.126H818.769C814.432 201.126 812.264 203.297 812.264 207.638V241.92H802.124V206.106C802.124 200.999 803.144 197.264 805.185 194.902C807.29 192.54 810.829 191.359 815.803 191.359H836.562Z" fill="#1C1C1C"/>
<path d="M856.64 169.43V212.33H861.328C863.305 212.33 864.931 212.298 866.206 212.234C867.545 212.107 868.661 211.851 869.554 211.468C870.447 211.085 871.212 210.511 871.85 209.745C872.488 208.979 873.189 207.925 873.955 206.585L882.373 191.359H893.374L884.573 207.255C883.298 209.489 881.99 211.341 880.651 212.809C879.312 214.213 877.622 215.363 875.581 216.256C878.004 216.959 879.949 218.108 881.416 219.704C882.883 221.236 884.382 223.343 885.912 226.024L895 241.92H883.616L875.198 226.981C874.433 225.641 873.7 224.587 872.998 223.821C872.297 222.991 871.436 222.385 870.415 222.002C869.459 221.555 868.247 221.268 866.78 221.14C865.377 220.949 863.56 220.853 861.328 220.853H856.64V241.92H846.5V169.43H856.64Z" fill="#1C1C1C"/>
<path d="M296.548 3.48156L296.935 3.16504V3.16504L296.548 3.48156ZM282.801 3.48156L282.414 3.16504V3.16504L282.801 3.48156ZM389.866 117.595L389.479 117.911L389.866 117.595ZM389.866 134.405L390.253 134.722L389.866 134.405ZM376.119 134.405L375.732 134.722L376.119 134.405ZM289.674 28.6973L290.061 28.3807C289.966 28.2646 289.824 28.1973 289.674 28.1973C289.524 28.1973 289.382 28.2646 289.287 28.3807L289.674 28.6973ZM109.912 248.518L110.299 248.835L109.912 248.518ZM96.165 248.518L95.7779 248.835L96.165 248.518ZM2.8471 134.405L3.23416 134.089H3.23416L2.8471 134.405ZM16.5941 117.595L16.2071 117.911L16.5941 117.595ZM103.038 223.303L102.651 223.619C102.746 223.735 102.888 223.803 103.038 223.803C103.189 223.803 103.331 223.735 103.426 223.619L103.038 223.303ZM14.3946 6.17124L14.0075 6.48776L14.3946 6.17124ZM5.04663 6.17124L5.43368 6.48776L5.04663 6.17124ZM103.038 114.569L102.651 114.885C102.746 115.002 102.888 115.069 103.038 115.069C103.189 115.069 103.331 115.002 103.426 114.885L103.038 114.569ZM191.682 6.17124L191.295 5.85471L191.682 6.17124ZM201.03 6.17124L200.643 6.48776L201.03 6.17124ZM201.03 17.6024L200.643 17.2858L201.03 17.6024ZM107.712 131.716L108.1 132.032L107.712 131.716ZM98.3645 131.716L97.9775 132.032L98.3645 131.716ZM5.04663 17.6024L5.43368 17.2858L5.04663 17.6024ZM378.318 245.829L378.705 245.512L378.318 245.829ZM387.666 245.829L387.279 245.512L387.666 245.829ZM289.674 137.431L290.061 137.115C289.966 136.998 289.824 136.931 289.674 136.931C289.524 136.931 289.382 136.998 289.287 137.115L289.674 137.431ZM201.03 245.829L201.417 246.145L201.03 245.829ZM191.682 245.829L192.069 245.512L191.682 245.829ZM191.682 234.398L192.069 234.714L191.682 234.398ZM285 120.284L285.387 120.601L285 120.284ZM294.348 120.284L294.735 119.968L294.348 120.284ZM387.666 234.398L387.279 234.714L387.666 234.398ZM570.702 28.3752L570.344 28.7244L570.349 28.7286L570.702 28.3752ZM570.914 77.485L571.259 77.8471L571.263 77.8427L570.914 77.485ZM488.656 85.7405V85.2405H488.156V85.7405H488.656ZM492.462 105.003L492.082 105.329L492.09 105.338L492.099 105.348L492.462 105.003ZM574.086 109.237H574.586V108.737H574.086V109.237ZM574.086 131.04V131.54H574.586V131.04H574.086ZM487.81 128.288L487.631 128.755L487.635 128.757L487.81 128.288ZM475.756 120.668L475.388 121.005L475.395 121.013L475.403 121.021L475.756 120.668ZM468.99 109.025L468.512 109.174L468.514 109.179L468.99 109.025ZM468.99 41.4994L469.467 41.6484L468.99 41.4994ZM475.756 29.857L475.395 29.5112L475.395 29.5115L475.756 29.857ZM487.81 22.0248L487.635 21.5561L487.631 21.5578L487.81 22.0248ZM488.656 68.171H488.156V68.671H488.656V68.171ZM553.785 64.5725L553.442 64.2092L553.437 64.2141L553.432 64.2191L553.785 64.5725ZM553.785 44.6746L553.432 45.0279L553.785 44.6746ZM492.462 45.3096L492.091 44.9742L492.082 44.9844L492.462 45.3096ZM615.081 22.176L615.549 21.9996L615.427 21.676H615.081V22.176ZM648.109 109.751L647.641 109.927L647.643 109.933L648.109 109.751ZM658.743 109.751L659.201 109.95L659.205 109.943L659.208 109.935L658.743 109.751ZM693.382 22.176V21.676H693.042L692.917 21.9921L693.382 22.176ZM714.488 22.176L714.953 22.3602L715.224 21.676H714.488V22.176ZM676.143 118.944L675.678 118.76L675.678 118.76L676.143 118.944ZM667.443 129.911L667.687 130.347L667.691 130.345L667.443 129.911ZM639.409 130.072L639.175 130.514L639.183 130.518L639.19 130.522L639.409 130.072ZM630.548 118.944L630.08 119.12L630.08 119.121L630.548 118.944ZM594.136 22.176V21.676H593.414L593.668 22.3521L594.136 22.176ZM749.639 22.176H750.139V21.676H749.639V22.176ZM749.639 131.04V131.54H750.139V131.04H749.639ZM730.628 131.04H730.128V131.54H730.628V131.04ZM730.628 22.176V21.676H730.128V22.176H730.628ZM786.736 131.04V131.54H787.076L787.201 131.223L786.736 131.04ZM765.791 131.04L765.326 130.856L765.056 131.54H765.791V131.04ZM803.975 34.272L803.51 34.0881L803.51 34.0885L803.975 34.272ZM812.514 23.4662L812.758 23.9026L812.762 23.9002L812.514 23.4662ZM840.87 23.4662L840.616 23.8971L840.623 23.9014L840.631 23.9056L840.87 23.4662ZM849.409 34.272L848.94 34.4474L848.941 34.4494L849.409 34.272ZM886.142 131.04V131.54H886.867L886.61 130.863L886.142 131.04ZM865.036 131.04L864.569 131.216L864.691 131.54H865.036V131.04ZM832.008 43.465L832.476 43.2885L832.474 43.2829L832.008 43.465ZM821.214 43.465L820.755 43.2658L820.752 43.2737L820.748 43.2818L821.214 43.465ZM472.167 241.92V242.42H472.667V241.92H472.167ZM460.879 241.92H460.379V242.42H460.879V241.92ZM464.514 180.059L464.876 180.403L464.881 180.399L464.514 180.059ZM485.846 179.389L485.503 179.752L485.508 179.757L485.513 179.762L485.846 179.389ZM491.394 188.103L490.924 188.273L490.931 188.292L490.94 188.311L491.394 188.103ZM510.24 229.375L509.785 229.583L509.788 229.591L509.792 229.599L510.24 229.375ZM511.77 231.291L512.083 230.9L511.77 231.291ZM517.127 231.099L517.481 231.452L517.127 231.099ZM518.179 177.282V176.782H517.679V177.282H518.179ZM529.563 177.282H530.063V176.782H529.563V177.282ZM525.832 239.239L525.47 238.894L525.47 238.895L525.832 239.239ZM508.805 242.207L508.963 241.733L508.952 241.729L508.805 242.207ZM504.404 239.909L504.071 240.281L504.081 240.291L504.092 240.299L504.404 239.909ZM498.952 231.099L499.424 230.936L499.417 230.913L499.406 230.891L498.952 231.099ZM480.106 189.827L479.65 190.031L479.652 190.034L480.106 189.827ZM473.123 188.103L472.77 187.75L473.123 188.103ZM590.394 195.476L590.036 195.826L590.041 195.83L590.394 195.476ZM590.49 217.693L590.835 218.055L590.839 218.05L590.49 217.693ZM553.278 221.427V220.927H552.778V221.427H553.278ZM555 230.142L554.62 230.467L554.628 230.476L554.637 230.486L555 230.142ZM591.925 232.057H592.425V231.557H591.925V232.057ZM591.925 241.92V242.42H592.425V241.92H591.925ZM552.895 240.675L552.717 241.142L552.721 241.144L552.895 240.675ZM547.443 237.228L547.074 237.565L547.081 237.573L547.089 237.581L547.443 237.228ZM544.382 231.961L543.904 232.11L543.906 232.114L544.382 231.961ZM544.382 201.414L544.859 201.563L544.382 201.414ZM547.443 196.147L547.082 195.801L547.081 195.801L547.443 196.147ZM552.895 192.604L552.721 192.135L552.717 192.137L552.895 192.604ZM553.278 213.479H552.778V213.979H553.278V213.479ZM582.742 211.851L582.398 211.488L582.393 211.493L582.388 211.498L582.742 211.851ZM582.742 202.85L582.388 203.203L582.742 202.85ZM555 203.137L554.629 202.802L554.62 202.812L555 203.137ZM608.698 191.359V191.859H609.198V191.359H608.698ZM608.698 179.389V178.889H608.198V179.389H608.698ZM618.934 179.389H619.434V178.889H618.934V179.389ZM618.934 191.359H618.434V191.859H618.934V191.359ZM632.901 191.359H633.401V190.859H632.901V191.359ZM632.901 201.126V201.626H633.401V201.126H632.901ZM618.934 201.126V200.626H618.434V201.126H618.934ZM620.465 231.003L620.101 231.346L620.106 231.351L620.111 231.357L620.465 231.003ZM632.709 232.631H633.209V232.131H632.709V232.631ZM632.709 241.92V242.42H633.209V241.92H632.709ZM616.83 241.058L616.681 241.536L616.686 241.537L616.83 241.058ZM612.238 238.185L611.867 238.521L612.238 238.185ZM609.559 232.823L609.075 232.947L609.559 232.823ZM608.698 201.126H609.198V200.626H608.698V201.126ZM601.811 201.126H601.311V201.626H601.811V201.126ZM601.811 191.359V190.859H601.311V191.359H601.811ZM651.223 191.359L651.72 191.302L651.669 190.859H651.223V191.359ZM655.719 230.812L655.222 230.868L655.222 230.87L655.719 230.812ZM656.675 233.302L656.302 233.634L656.321 233.656L656.343 233.675L656.675 233.302ZM661.841 233.397L662.171 233.773L662.173 233.771L661.841 233.397ZM663.085 231.291L663.566 231.428L663.569 231.416L663.572 231.405L663.085 231.291ZM670.259 200.647L670.746 200.761L670.747 200.758L670.259 200.647ZM674.755 192.987L675.061 193.382L674.755 192.987ZM697.618 200.647L698.106 200.539L698.106 200.537L697.618 200.647ZM704.41 231.291L704.9 231.189L704.898 231.182L704.41 231.291ZM710.724 233.302L711.077 233.655L711.088 233.645L711.098 233.634L710.724 233.302ZM711.68 230.812L711.185 230.746L711.184 230.753L711.68 230.812ZM716.942 191.359V190.859H716.504L716.446 191.293L716.942 191.359ZM727.943 191.359L728.438 191.429L728.518 190.859H727.943V191.359ZM722.299 231.386L722.793 231.458L722.794 231.456L722.299 231.386ZM718.281 239.909L718.629 240.268L718.635 240.262L718.281 239.909ZM698.957 240.484L699.269 240.092L698.957 240.484ZM694.557 232.631L695.046 232.525L695.045 232.523L694.557 232.631ZM687.765 201.892L687.276 201.997L687.277 202L687.765 201.892ZM686.426 199.977L686.168 200.406L686.177 200.411L686.186 200.416L686.426 199.977ZM680.304 201.892L680.791 202.006L680.791 202.005L680.304 201.892ZM673.129 232.631L673.616 232.746L673.616 232.745L673.129 232.631ZM668.537 240.484L668.232 240.088L668.537 240.484ZM653.136 242.207L652.966 242.678L652.972 242.68L653.136 242.207ZM649.118 239.813L648.765 240.167L648.77 240.172L648.775 240.177L649.118 239.813ZM646.727 236.174L646.261 236.356L646.264 236.364L646.727 236.174ZM645.483 231.386L644.987 231.452L644.989 231.46L645.483 231.386ZM640.222 191.359V190.859H639.652L639.726 191.424L640.222 191.359ZM784.149 197.679L783.785 198.021L783.787 198.024L784.149 197.679ZM784.149 235.696L784.511 236.041L784.149 235.696ZM741.485 235.696L741.12 236.038L741.123 236.041L741.485 235.696ZM741.485 197.583L741.123 197.238L741.12 197.241L741.485 197.583ZM748.851 204.765L748.468 204.443L748.463 204.449L748.851 204.765ZM748.851 228.514L748.463 228.829L748.468 228.835L748.472 228.84L748.851 228.514ZM776.784 228.514L776.401 228.192L776.4 228.193L776.784 228.514ZM776.784 204.765L776.396 205.081L776.401 205.087L776.784 204.765ZM836.562 191.359H837.062V190.859H836.562V191.359ZM836.562 201.126V201.626H837.062V201.126H836.562ZM812.264 241.92V242.42H812.764V241.92H812.264ZM802.124 241.92H801.624V242.42H802.124V241.92ZM805.185 194.902L804.812 194.569L804.807 194.575L805.185 194.902ZM856.64 169.43H857.14V168.93H856.64V169.43ZM856.64 212.33H856.14V212.83H856.64V212.33ZM866.206 212.234L866.231 212.734L866.242 212.733L866.254 212.732L866.206 212.234ZM869.554 211.468L869.357 211.009L869.554 211.468ZM871.85 209.745L871.466 209.425L871.85 209.745ZM873.955 206.585L874.389 206.832L874.392 206.826L873.955 206.585ZM882.373 191.359V190.859H882.078L881.935 191.117L882.373 191.359ZM893.374 191.359L893.811 191.601L894.222 190.859H893.374V191.359ZM884.573 207.255L885.007 207.503L885.01 207.497L884.573 207.255ZM880.651 212.809L881.013 213.154L881.02 213.146L880.651 212.809ZM875.581 216.256L875.38 215.798L874.116 216.352L875.442 216.737L875.581 216.256ZM881.416 219.704L881.048 220.042L881.055 220.049L881.416 219.704ZM885.912 226.024L885.478 226.272L885.478 226.272L885.912 226.024ZM895 241.92V242.42H895.862L895.434 241.672L895 241.92ZM883.616 241.92L883.181 242.165L883.324 242.42H883.616V241.92ZM875.198 226.981L875.634 226.736L875.633 226.734L875.198 226.981ZM872.998 223.821L872.616 224.144L872.623 224.152L872.629 224.159L872.998 223.821ZM870.415 222.002L870.204 222.455L870.221 222.463L870.24 222.47L870.415 222.002ZM866.78 221.14L866.713 221.635L866.725 221.637L866.737 221.638L866.78 221.14ZM856.64 220.853V220.353H856.14V220.853H856.64ZM856.64 241.92V242.42H857.14V241.92H856.64ZM846.5 241.92H846V242.42H846.5V241.92ZM846.5 169.43V168.93H846V169.43H846.5ZM296.935 3.16504C294.95 0.738165 292.325 -0.5 289.674 -0.5C287.024 -0.5 284.398 0.738165 282.414 3.16504L283.188 3.79808C284.999 1.58288 287.349 0.5 289.674 0.5C291.999 0.5 294.349 1.58288 296.161 3.79808L296.935 3.16504ZM390.253 117.278L296.935 3.16504L296.161 3.79808L389.479 117.911L390.253 117.278ZM390.253 134.722C394.199 129.896 394.199 122.104 390.253 117.278L389.479 117.911C393.124 122.369 393.124 129.631 389.479 134.089L390.253 134.722ZM375.732 134.722C377.716 137.149 380.342 138.387 382.992 138.387C385.643 138.387 388.268 137.149 390.253 134.722L389.479 134.089C387.667 136.304 385.317 137.387 382.992 137.387C380.667 137.387 378.317 136.304 376.506 134.089L375.732 134.722ZM289.287 29.0138L375.732 134.722L376.506 134.089L290.061 28.3807L289.287 29.0138ZM95.7779 248.835C97.7625 251.262 100.388 252.5 103.038 252.5C105.689 252.5 108.314 251.262 110.299 248.835L109.525 248.202C107.713 250.417 105.363 251.5 103.038 251.5C100.714 251.5 98.3636 250.417 96.552 248.202L95.7779 248.835ZM2.46004 134.722L95.7779 248.835L96.552 248.202L3.23416 134.089L2.46004 134.722ZM2.46004 117.278C-1.48668 122.104 -1.48668 129.896 2.46004 134.722L3.23416 134.089C-0.411386 129.631 -0.411386 122.369 3.23416 117.911L2.46004 117.278ZM16.9812 117.278C14.9966 114.851 12.3712 113.613 9.72061 113.613C7.07007 113.613 4.44466 114.851 2.46004 117.278L3.23416 117.911C5.04568 115.696 7.39571 114.613 9.72061 114.613C12.0455 114.613 14.3955 115.696 16.2071 117.911L16.9812 117.278ZM103.426 222.986L16.9812 117.278L16.2071 117.911L102.651 223.619L103.426 222.986ZM110.299 248.835L290.061 29.0138L289.287 28.3807L109.525 248.202L110.299 248.835ZM282.414 3.16504L102.651 222.986L103.426 223.619L283.188 3.79808L282.414 3.16504ZM14.7817 5.85471C13.4044 4.17057 11.5751 3.30377 9.72061 3.30377C7.86614 3.30377 6.0368 4.17057 4.65957 5.85471L5.43368 6.48776C6.63782 5.01528 8.19178 4.30377 9.72061 4.30377C11.2494 4.30377 12.8034 5.01528 14.0075 6.48776L14.7817 5.85471ZM191.295 5.85471L102.651 114.252L103.426 114.885L192.069 6.48776L191.295 5.85471ZM201.417 5.85471C200.04 4.17057 198.211 3.30377 196.356 3.30377C194.502 3.30377 192.673 4.17057 191.295 5.85471L192.069 6.48776C193.274 5.01528 194.828 4.30377 196.356 4.30377C197.885 4.30377 199.439 5.01528 200.643 6.48776L201.417 5.85471ZM201.417 17.9189C204.149 14.5781 204.149 9.19548 201.417 5.85471L200.643 6.48776C203.074 9.46023 203.074 14.3134 200.643 17.2858L201.417 17.9189ZM108.1 132.032L201.417 17.9189L200.643 17.2858L107.325 131.399L108.1 132.032ZM97.9775 132.032C99.3547 133.716 101.184 134.583 103.038 134.583C104.893 134.583 106.722 133.716 108.1 132.032L107.325 131.399C106.121 132.872 104.567 133.583 103.038 133.583C101.51 133.583 99.9557 132.872 98.7516 131.399L97.9775 132.032ZM4.65957 5.85471C1.92761 9.19548 1.92761 14.5781 4.65957 17.9189L5.43368 17.2858C3.0029 14.3134 3.0029 9.46023 5.43368 6.48776L4.65957 5.85471ZM103.426 114.252L14.7817 5.85471L14.0075 6.48776L102.651 114.885L103.426 114.252ZM4.65957 17.9189L97.9775 132.032L98.7516 131.399L5.43368 17.2858L4.65957 17.9189ZM377.931 246.145C379.308 247.829 381.138 248.696 382.992 248.696C384.847 248.696 386.676 247.829 388.053 246.145L387.279 245.512C386.075 246.985 384.521 247.696 382.992 247.696C381.463 247.696 379.909 246.985 378.705 245.512L377.931 246.145ZM289.287 137.748L377.931 246.145L378.705 245.512L290.061 137.115L289.287 137.748ZM201.417 246.145L290.061 137.748L289.287 137.115L200.643 245.512L201.417 246.145ZM191.295 246.145C192.673 247.829 194.502 248.696 196.356 248.696C198.211 248.696 200.04 247.829 201.417 246.145L200.643 245.512C199.439 246.985 197.885 247.696 196.356 247.696C194.828 247.696 193.274 246.985 192.069 245.512L191.295 246.145ZM191.295 234.081C188.563 237.422 188.563 242.805 191.295 246.145L192.069 245.512C189.639 242.54 189.639 237.687 192.069 234.714L191.295 234.081ZM284.613 119.968L191.295 234.081L192.069 234.714L285.387 120.601L284.613 119.968ZM294.735 119.968C293.358 118.284 291.529 117.417 289.674 117.417C287.82 117.417 285.99 118.284 284.613 119.968L285.387 120.601C286.591 119.128 288.145 118.417 289.674 118.417C291.203 118.417 292.757 119.128 293.961 120.601L294.735 119.968ZM388.053 234.081L294.735 119.968L293.961 120.601L387.279 234.714L388.053 234.081ZM388.053 246.145C390.785 242.805 390.785 237.422 388.053 234.081L387.279 234.714C389.71 237.687 389.71 242.54 387.279 245.512L388.053 246.145ZM541.944 19.773C555.134 19.773 564.559 22.7952 570.344 28.7244L571.06 28.026C565.004 21.8189 555.256 18.773 541.944 18.773V19.773ZM570.349 28.7286C576.15 34.5363 579.084 42.7903 579.084 53.5651H580.084C580.084 42.6074 577.096 34.0681 571.056 28.0218L570.349 28.7286ZM579.084 53.5651C579.084 63.7712 576.223 71.6007 570.564 77.1272L571.263 77.8427C577.164 72.0796 580.084 63.9625 580.084 53.5651H579.084ZM570.569 77.1229C564.929 82.493 555.363 85.2405 541.732 85.2405V86.2405C555.45 86.2405 565.338 83.4843 571.259 77.8471L570.569 77.1229ZM541.732 85.2405H488.656V86.2405H541.732V85.2405ZM488.156 85.7405V93.7843H489.156V85.7405H488.156ZM488.156 93.7843C488.156 98.3996 489.455 102.26 492.082 105.329L492.842 104.678C490.394 101.819 489.156 98.2008 489.156 93.7843H488.156ZM492.099 105.348C494.915 108.315 499.523 109.737 505.784 109.737V108.737C499.639 108.737 495.365 107.336 492.824 104.659L492.099 105.348ZM505.784 109.737H574.086V108.737H505.784V109.737ZM573.586 109.237V131.04H574.586V109.237H573.586ZM574.086 130.54H505.784V131.54H574.086V130.54ZM505.784 130.54C498.776 130.54 492.847 129.628 487.984 127.82L487.635 128.757C492.641 130.618 498.695 131.54 505.784 131.54V130.54ZM487.988 127.821C483.253 126.009 479.297 123.505 476.11 120.314L475.403 121.021C478.7 124.322 482.78 126.898 487.631 128.755L487.988 127.821ZM476.125 120.33C473.072 116.996 470.853 113.178 469.466 108.872L468.514 109.179C469.946 113.622 472.238 117.565 475.388 121.005L476.125 120.33ZM469.467 108.876C468.074 104.415 467.375 99.5264 467.375 94.2077H466.375C466.375 99.6141 467.086 104.604 468.512 109.174L469.467 108.876ZM467.375 94.2077V56.1053H466.375V94.2077H467.375ZM467.375 56.1053C467.375 50.9292 468.074 46.1112 469.467 41.6484L468.512 41.3504C467.086 45.9191 466.375 50.8385 466.375 56.1053H467.375ZM469.467 41.6484C470.855 37.202 473.073 33.3895 476.118 30.2024L475.395 29.5115C472.237 32.816 469.944 36.7651 468.512 41.3504L469.467 41.6484ZM476.118 30.2027C479.304 26.8741 483.258 24.3024 487.988 22.4918L487.631 21.5578C482.775 23.4163 478.693 26.066 475.395 29.5112L476.118 30.2027ZM487.984 22.4934C492.847 20.6853 498.776 19.773 505.784 19.773V18.773C498.695 18.773 492.641 19.6951 487.635 21.5561L487.984 22.4934ZM505.784 19.773H541.944V18.773H505.784V19.773ZM488.656 68.671H541.098V67.671H488.656V68.671ZM541.098 68.671C547.197 68.671 551.598 67.4698 554.139 64.9258L553.432 64.2191C551.18 66.4732 547.123 67.671 541.098 67.671V68.671ZM554.129 64.9358C556.784 62.426 558.092 59.0394 558.092 54.8352H557.092C557.092 58.8159 555.862 61.9209 553.442 64.2092L554.129 64.9358ZM558.092 54.8352C558.092 50.4946 556.787 46.9717 554.139 44.3212L553.432 45.0279C555.859 47.4577 557.092 50.7086 557.092 54.8352H558.092ZM554.139 44.3212C551.468 41.6475 547.294 40.3643 541.732 40.3643V41.3643C547.167 41.3643 551.028 42.6213 553.432 45.0279L554.139 44.3212ZM541.732 40.3643H505.784V41.3643H541.732V40.3643ZM505.784 40.3643C499.517 40.3643 494.906 41.8597 492.091 44.9743L492.833 45.6449C495.375 42.8324 499.645 41.3643 505.784 41.3643V40.3643ZM492.082 44.9844C489.457 48.0496 488.156 51.8384 488.156 56.317H489.156C489.156 52.0461 490.391 48.4966 492.842 45.6348L492.082 44.9844ZM488.156 56.317V68.171H489.156V56.317H488.156ZM614.613 22.3524L647.641 109.927L648.577 109.575L615.549 21.9996L614.613 22.3524ZM647.643 109.933C648.155 111.24 648.893 112.257 649.877 112.943C650.862 113.631 652.055 113.96 653.426 113.96V112.96C652.219 112.96 651.237 112.672 650.449 112.123C649.661 111.573 649.031 110.735 648.575 109.569L647.643 109.933ZM653.426 113.96C654.748 113.96 655.912 113.628 656.894 112.943C657.873 112.26 658.636 111.251 659.201 109.95L658.284 109.552C657.775 110.724 657.115 111.569 656.322 112.123C655.531 112.675 654.574 112.96 653.426 112.96V113.96ZM659.208 109.935L693.847 22.3599L692.917 21.9921L658.278 109.567L659.208 109.935ZM693.382 22.676H714.488V21.676H693.382V22.676ZM714.023 21.9918L675.678 118.76L676.608 119.128L714.953 22.3602L714.023 21.9918ZM675.678 118.76C673.667 123.846 670.83 127.397 667.195 129.477L667.691 130.345C671.574 128.124 674.537 124.364 676.608 119.128L675.678 118.76ZM667.199 129.475C663.643 131.463 659.063 132.475 653.426 132.475V133.475C659.175 133.475 663.938 132.444 667.687 130.347L667.199 129.475ZM653.426 132.475C648.115 132.475 643.521 131.519 639.628 129.623L639.19 130.522C643.246 132.497 647.996 133.475 653.426 133.475V132.475ZM639.643 129.63C635.914 127.66 633.027 124.065 631.015 118.767L630.08 119.121C632.151 124.575 635.171 128.399 639.175 130.514L639.643 129.63ZM631.016 118.768L594.604 21.9999L593.668 22.3521L630.08 119.12L631.016 118.768ZM594.136 22.676H615.081V21.676H594.136V22.676ZM749.139 22.176V131.04H750.139V22.176H749.139ZM749.639 130.54H730.628V131.54H749.639V130.54ZM731.128 131.04V22.176H730.128V131.04H731.128ZM730.628 22.676H749.639V21.676H730.628V22.676ZM786.736 130.54H765.791V131.54H786.736V130.54ZM766.256 131.224L804.44 34.4555L803.51 34.0885L765.326 130.856L766.256 131.224ZM804.44 34.4559C806.452 29.3669 809.235 25.8732 812.758 23.9026L812.269 23.0299C808.488 25.145 805.579 28.8552 803.51 34.0881L804.44 34.4559ZM812.762 23.9002C816.424 21.8053 821.111 20.7406 826.853 20.7406V19.7406C820.994 19.7406 816.122 20.8263 812.265 23.0322L812.762 23.9002ZM826.853 20.7406C832.486 20.7406 837.063 21.8049 840.616 23.8971L841.123 23.0354C837.372 20.8267 832.605 19.7406 826.853 19.7406V20.7406ZM840.631 23.9056C844.257 25.876 847.037 29.3659 848.94 34.4474L849.877 34.0966C847.914 28.8562 845.001 25.1422 841.108 23.0269L840.631 23.9056ZM848.941 34.4494L885.675 131.217L886.61 130.863L849.876 34.0945L848.941 34.4494ZM886.142 130.54H865.036V131.54H886.142V130.54ZM865.504 130.864L832.476 43.2885L831.54 43.6414L864.569 131.216L865.504 130.864ZM832.474 43.2829C831.963 41.9756 831.224 40.9594 830.24 40.2728C829.255 39.5855 828.063 39.2555 826.692 39.2555V40.2555C827.898 40.2555 828.881 40.5438 829.668 41.0929C830.456 41.6428 831.087 42.4814 831.543 43.647L832.474 43.2829ZM826.692 39.2555C825.32 39.2555 824.117 39.5856 823.108 40.2689C822.101 40.9511 821.322 41.9617 820.755 43.2658L821.672 43.6641C822.18 42.4953 822.851 41.6511 823.669 41.0969C824.486 40.5437 825.485 40.2555 826.692 40.2555V39.2555ZM820.748 43.2818L786.27 130.857L787.201 131.223L821.679 43.6481L820.748 43.2818ZM472.167 241.42H460.879V242.42H472.167V241.42ZM461.379 241.92V190.21H460.379V241.92H461.379ZM461.379 190.21C461.379 186.097 462.558 182.846 464.876 180.403L464.151 179.715C461.623 182.379 460.379 185.895 460.379 190.21H461.379ZM464.881 180.399C467.176 177.92 470.748 176.633 475.706 176.633V175.633C470.587 175.633 466.699 176.963 464.147 179.719L464.881 180.399ZM475.706 176.633C480.095 176.633 483.332 177.7 485.503 179.752L486.19 179.025C483.769 176.736 480.245 175.633 475.706 175.633V176.633ZM485.513 179.762C487.798 181.801 489.606 184.629 490.924 188.273L491.865 187.933C490.504 184.171 488.614 181.19 486.179 179.016L485.513 179.762ZM490.94 188.311L509.785 229.583L510.694 229.168L491.849 187.895L490.94 188.311ZM509.792 229.599C510.206 230.426 510.761 231.123 511.458 231.681L512.083 230.9C511.504 230.437 511.039 229.857 510.687 229.152L509.792 229.599ZM511.458 231.681C512.209 232.283 513.193 232.557 514.353 232.557V231.557C513.345 231.557 512.607 231.32 512.083 230.9L511.458 231.681ZM514.353 232.557C515.651 232.557 516.721 232.213 517.481 231.452L516.773 230.746C516.258 231.262 515.479 231.557 514.353 231.557V232.557ZM517.481 231.452C518.285 230.647 518.679 229.622 518.679 228.418H517.679C517.679 229.384 517.372 230.146 516.773 230.746L517.481 231.452ZM518.679 228.418V177.282H517.679V228.418H518.679ZM518.179 177.782H529.563V176.782H518.179V177.782ZM529.063 177.282V228.897H530.063V177.282H529.063ZM529.063 228.897C529.063 233.071 527.853 236.387 525.47 238.894L526.195 239.583C528.786 236.856 530.063 233.277 530.063 228.897H529.063ZM525.47 238.895C523.174 241.313 519.631 242.569 514.736 242.569V243.569C519.789 243.569 523.644 242.271 526.195 239.583L525.47 238.895ZM514.736 242.569C512.545 242.569 510.624 242.287 508.963 241.733L508.646 242.682C510.43 243.277 512.462 243.569 514.736 243.569V242.569ZM508.952 241.729C507.35 241.236 505.94 240.498 504.717 239.519L504.092 240.299C505.419 241.362 506.943 242.157 508.658 242.685L508.952 241.729ZM504.738 239.537C503.565 238.486 502.543 237.248 501.675 235.819L500.82 236.338C501.737 237.846 502.82 239.162 504.071 240.281L504.738 239.537ZM501.675 235.819C500.803 234.385 500.052 232.758 499.424 230.936L498.479 231.262C499.127 233.143 499.906 234.836 500.82 236.338L501.675 235.819ZM499.406 230.891L480.561 189.619L479.652 190.034L498.497 231.307L499.406 230.891ZM480.563 189.622C480.12 188.633 479.526 187.859 478.765 187.332C478 186.804 477.101 186.55 476.089 186.55V187.55C476.926 187.55 477.621 187.758 478.196 188.155C478.774 188.555 479.264 189.168 479.65 190.031L480.563 189.622ZM476.089 186.55C474.72 186.55 473.589 186.929 472.77 187.75L473.477 188.456C474.06 187.873 474.906 187.55 476.089 187.55V186.55ZM472.77 187.75C472.014 188.506 471.667 189.541 471.667 190.784H472.667C472.667 189.73 472.957 188.977 473.477 188.456L472.77 187.75ZM471.667 190.784V241.92H472.667V190.784H471.667ZM577.385 191.859C583.319 191.859 587.494 193.219 590.037 195.826L590.752 195.127C587.938 192.243 583.44 190.859 577.385 190.859V191.859ZM590.041 195.83C592.6 198.392 593.912 202.048 593.912 206.872H594.912C594.912 201.865 593.546 197.924 590.748 195.123L590.041 195.83ZM593.912 206.872C593.912 211.437 592.634 214.9 590.141 217.335L590.839 218.05C593.575 215.379 594.912 211.628 594.912 206.872H593.912ZM590.145 217.331C587.671 219.687 583.432 220.927 577.289 220.927V221.927C583.518 221.927 588.08 220.678 590.835 218.055L590.145 217.331ZM577.289 220.927H553.278V221.927H577.289V220.927ZM552.778 221.427V225.066H553.778V221.427H552.778ZM552.778 225.066C552.778 227.208 553.383 229.021 554.62 230.467L555.38 229.816C554.321 228.58 553.778 227.01 553.778 225.066H552.778ZM554.637 230.486C555.987 231.908 558.163 232.557 561.027 232.557V231.557C558.279 231.557 556.437 230.929 555.363 229.797L554.637 230.486ZM561.027 232.557H591.925V231.557H561.027V232.557ZM591.425 232.057V241.92H592.425V232.057H591.425ZM591.925 241.42H561.027V242.42H591.925V241.42ZM561.027 241.42C557.878 241.42 555.231 241.01 553.07 240.206L552.721 241.144C555.024 242 557.797 242.42 561.027 242.42V241.42ZM553.074 240.208C550.964 239.4 549.208 238.287 547.796 236.874L547.089 237.581C548.611 239.105 550.49 240.29 552.717 241.142L553.074 240.208ZM547.811 236.89C546.457 235.411 545.473 233.718 544.857 231.808L543.906 232.114C544.565 234.162 545.622 235.98 547.074 237.565L547.811 236.89ZM544.859 231.812C544.238 229.823 543.925 227.64 543.925 225.258H542.925C542.925 227.728 543.25 230.013 543.904 232.11L544.859 231.812ZM543.925 225.258V208.021H542.925V225.258H543.925ZM543.925 208.021C543.925 205.704 544.238 203.552 544.859 201.563L543.904 201.265C543.25 203.36 542.925 205.614 542.925 208.021H543.925ZM544.859 201.563C545.475 199.589 546.457 197.902 547.804 196.492L547.081 195.801C545.622 197.328 544.564 199.152 543.904 201.265L544.859 201.563ZM547.804 196.492C549.215 195.019 550.968 193.877 553.074 193.071L552.717 192.137C550.486 192.99 548.604 194.211 547.082 195.801L547.804 196.492ZM553.07 193.072C555.231 192.269 557.878 191.859 561.027 191.859V190.859C557.797 190.859 555.024 191.279 552.721 192.135L553.07 193.072ZM561.027 191.859H577.385V190.859H561.027V191.859ZM553.278 213.979H577.002V212.979H553.278V213.979ZM577.002 213.979C579.781 213.979 581.866 213.435 583.095 212.205L582.388 211.498C581.448 212.438 579.707 212.979 577.002 212.979V213.979ZM583.085 212.215C584.35 211.019 584.963 209.41 584.963 207.446H583.963C583.963 209.186 583.429 210.514 582.398 211.488L583.085 212.215ZM584.963 207.446C584.963 205.424 584.353 203.756 583.095 202.497L582.388 203.203C583.425 204.242 583.963 205.638 583.963 207.446H584.963ZM583.095 202.497C581.814 201.214 579.84 200.626 577.289 200.626V201.626C579.712 201.626 581.373 202.188 582.388 203.203L583.095 202.497ZM577.289 200.626H561.027V201.626H577.289V200.626ZM561.027 200.626C558.156 200.626 555.977 201.31 554.629 202.802L555.371 203.472C556.446 202.283 558.284 201.626 561.027 201.626V200.626ZM554.62 202.812C553.385 204.254 552.778 206.034 552.778 208.117H553.778C553.778 206.241 554.319 204.701 555.38 203.462L554.62 202.812ZM552.778 208.117V213.479H553.778V208.117H552.778ZM609.198 191.359V179.389H608.198V191.359H609.198ZM608.698 179.889H618.934V178.889H608.698V179.889ZM618.434 179.389V191.359H619.434V179.389H618.434ZM618.934 191.859H632.901V190.859H618.934V191.859ZM632.401 191.359V201.126H633.401V191.359H632.401ZM632.901 200.626H618.934V201.626H632.901V200.626ZM618.434 201.126V225.066H619.434V201.126H618.434ZM618.434 225.066C618.434 227.963 618.941 230.113 620.101 231.346L620.829 230.661C619.947 229.723 619.434 227.915 619.434 225.066H618.434ZM620.111 231.357C621.331 232.578 623.244 233.131 625.726 233.131V232.131C623.361 232.131 621.767 231.599 620.819 230.65L620.111 231.357ZM625.726 233.131H632.709V232.131H625.726V233.131ZM632.209 232.631V241.92H633.209V232.631H632.209ZM632.709 241.42H623.622V242.42H632.709V241.42ZM623.622 241.42C621.041 241.42 618.828 241.136 616.973 240.579L616.686 241.537C618.658 242.129 620.972 242.42 623.622 242.42V241.42ZM616.978 240.581C615.208 240.031 613.756 239.119 612.609 237.85L611.867 238.521C613.143 239.933 614.753 240.936 616.681 241.536L616.978 240.581ZM612.609 237.85C611.464 236.584 610.603 234.875 610.044 232.698L609.075 232.947C609.664 235.239 610.588 237.106 611.867 238.521L612.609 237.85ZM610.044 232.698C609.484 230.518 609.198 227.786 609.198 224.492H608.198C608.198 227.837 608.487 230.659 609.075 232.947L610.044 232.698ZM609.198 224.492V201.126H608.198V224.492H609.198ZM608.698 200.626H601.811V201.626H608.698V200.626ZM602.311 201.126V191.359H601.311V201.126H602.311ZM601.811 191.859H608.698V190.859H601.811V191.859ZM650.726 191.415L655.222 230.868L656.216 230.755L651.72 191.302L650.726 191.415ZM655.222 230.87C655.357 232.016 655.7 232.956 656.302 233.634L657.049 232.97C656.63 232.498 656.336 231.778 656.215 230.753L655.222 230.87ZM656.343 233.675C657.049 234.303 658.087 234.568 659.354 234.568V233.568C658.197 233.568 657.45 233.322 657.008 232.928L656.343 233.675ZM659.354 234.568C660.546 234.568 661.524 234.34 662.171 233.773L661.512 233.021C661.138 233.349 660.458 233.568 659.354 233.568V234.568ZM662.173 233.771C662.832 233.185 663.29 232.394 663.566 231.428L662.604 231.153C662.369 231.975 661.998 232.588 661.509 233.024L662.173 233.771ZM663.572 231.405L670.746 200.761L669.772 200.533L662.598 231.177L663.572 231.405ZM670.747 200.758C671.493 197.461 672.941 195.02 675.061 193.382L674.45 192.591C672.106 194.401 670.556 197.067 669.772 200.537L670.747 200.758ZM675.061 193.382C677.175 191.75 680.177 190.901 684.13 190.901V189.901C680.047 189.901 676.8 190.776 674.45 192.591L675.061 193.382ZM684.13 190.901C688.086 190.901 691.016 191.751 692.997 193.373L693.63 192.6C691.402 190.775 688.21 189.901 684.13 189.901V190.901ZM692.997 193.373C694.994 195.009 696.383 197.453 697.131 200.758L698.106 200.537C697.323 197.075 695.842 194.411 693.63 192.6L692.997 193.373ZM697.13 200.756L703.922 231.399L704.898 231.182L698.106 200.539L697.13 200.756ZM703.92 231.392C704.132 232.414 704.602 233.228 705.36 233.778C706.11 234.322 707.086 234.568 708.237 234.568V233.568C707.219 233.568 706.473 233.35 705.947 232.969C705.43 232.593 705.071 232.019 704.9 231.189L703.92 231.392ZM708.237 234.568C709.442 234.568 710.431 234.302 711.077 233.655L710.37 232.948C709.996 233.323 709.327 233.568 708.237 233.568V234.568ZM711.098 233.634C711.699 232.956 712.042 232.016 712.177 230.87L711.184 230.753C711.063 231.778 710.769 232.498 710.35 232.97L711.098 233.634ZM712.176 230.878L717.437 191.425L716.446 191.293L711.185 230.746L712.176 230.878ZM716.942 191.859H727.943V190.859H716.942V191.859ZM727.448 191.289L721.804 231.317L722.794 231.456L728.438 191.429L727.448 191.289ZM721.804 231.314C721.307 234.736 720.008 237.473 717.927 239.556L718.635 240.262C720.891 238.004 722.27 235.059 722.793 231.458L721.804 231.314ZM717.933 239.55C715.896 241.529 712.669 242.569 708.141 242.569V243.569C712.797 243.569 716.329 242.503 718.629 240.268L717.933 239.55ZM708.141 242.569C704.253 242.569 701.318 241.721 699.269 240.092L698.646 240.875C700.934 242.694 704.121 243.569 708.141 243.569V242.569ZM699.269 240.092C697.214 238.459 695.794 235.957 695.046 232.525L694.069 232.738C694.851 236.328 696.364 239.061 698.646 240.875L699.269 240.092ZM695.045 232.523L688.253 201.784L687.277 202L694.069 232.739L695.045 232.523ZM688.254 201.788C688.037 200.774 687.514 200.002 686.665 199.538L686.186 200.416C686.741 200.719 687.111 201.223 687.276 201.997L688.254 201.788ZM686.683 199.548C685.949 199.107 685.056 198.903 684.034 198.903V199.903C684.926 199.903 685.628 200.081 686.168 200.406L686.683 199.548ZM684.034 198.903C682.922 198.903 681.977 199.121 681.246 199.609C680.503 200.105 680.032 200.845 679.816 201.78L680.791 202.005C680.958 201.28 681.3 200.775 681.801 200.441C682.313 200.099 683.042 199.903 684.034 199.903V198.903ZM679.817 201.779L672.642 232.518L673.616 232.745L680.791 202.006L679.817 201.779ZM672.642 232.516C671.832 235.948 670.35 238.452 668.232 240.088L668.843 240.879C671.189 239.068 672.768 236.337 673.616 232.746L672.642 232.516ZM668.232 240.088C666.117 241.721 663.115 242.569 659.163 242.569V243.569C663.245 243.569 666.493 242.694 668.843 240.879L668.232 240.088ZM659.163 242.569C656.841 242.569 654.891 242.286 653.3 241.735L652.972 242.68C654.698 243.278 656.765 243.569 659.163 243.569V242.569ZM653.305 241.737C651.767 241.182 650.489 240.418 649.461 239.449L648.775 240.177C649.916 241.252 651.316 242.083 652.966 242.678L653.305 241.737ZM649.472 239.46C648.501 238.488 647.74 237.331 647.189 235.985L646.264 236.364C646.862 237.826 647.695 239.096 648.765 240.167L649.472 239.46ZM647.192 235.992C646.633 234.563 646.228 233.003 645.978 231.313L644.989 231.46C645.249 233.217 645.672 234.85 646.261 236.356L647.192 235.992ZM645.979 231.321L640.717 191.294L639.726 191.424L644.987 231.452L645.979 231.321ZM640.222 191.859H651.223V190.859H640.222V191.859ZM768.174 191.859C774.756 191.859 779.941 193.925 783.785 198.021L784.514 197.337C780.45 193.006 774.984 190.859 768.174 190.859V191.859ZM783.787 198.024C787.618 202.044 789.58 208.216 789.58 216.639H790.58C790.58 208.081 788.589 201.613 784.511 197.334L783.787 198.024ZM789.58 216.639C789.58 225.128 787.618 231.331 783.787 235.351L784.511 236.041C788.589 231.761 790.58 225.26 790.58 216.639H789.58ZM783.787 235.351C779.944 239.384 774.759 241.42 768.174 241.42V242.42C774.982 242.42 780.447 240.306 784.511 236.041L783.787 235.351ZM768.174 241.42H757.556V242.42H768.174V241.42ZM757.556 241.42C750.906 241.42 745.689 239.383 741.847 235.351L741.123 236.041C745.188 240.307 750.686 242.42 757.556 242.42V241.42ZM741.849 235.354C738.081 231.334 736.149 225.129 736.149 216.639H735.149C735.149 225.258 737.108 231.758 741.12 236.038L741.849 235.354ZM736.149 216.639C736.149 208.149 738.081 201.945 741.849 197.925L741.12 197.241C737.108 201.521 735.149 208.02 735.149 216.639H736.149ZM741.847 197.928C745.689 193.895 750.906 191.859 757.556 191.859V190.859C750.686 190.859 745.188 192.972 741.123 197.238L741.847 197.928ZM757.556 191.859H768.174V190.859H757.556V191.859ZM758.512 200.626C754.024 200.626 750.637 201.865 748.468 204.443L749.233 205.087C751.146 202.813 754.2 201.626 758.512 201.626V200.626ZM748.463 204.449C746.376 207.01 745.385 211.112 745.385 216.639H746.385C746.385 211.186 747.371 207.372 749.238 205.081L748.463 204.449ZM745.385 216.639C745.385 222.167 746.376 226.268 748.463 228.829L749.238 228.198C747.371 225.907 746.385 222.093 746.385 216.639H745.385ZM748.472 228.84C750.642 231.352 754.028 232.557 758.512 232.557V231.557C754.195 231.557 751.141 230.399 749.229 228.187L748.472 228.84ZM758.512 232.557H767.217V231.557H758.512V232.557ZM767.217 232.557C771.7 232.557 775.06 231.352 777.167 228.835L776.4 228.193C774.554 230.399 771.536 231.557 767.217 231.557V232.557ZM777.166 228.835C779.321 226.274 780.345 222.169 780.345 216.639H779.345C779.345 222.09 778.327 225.902 776.401 228.192L777.166 228.835ZM780.345 216.639C780.345 211.11 779.321 207.005 777.166 204.443L776.401 205.087C778.327 207.377 779.345 211.189 779.345 216.639H780.345ZM777.171 204.449C775.065 201.865 771.704 200.626 767.217 200.626V201.626C771.531 201.626 774.548 202.813 776.396 205.081L777.171 204.449ZM767.217 200.626H758.512V201.626H767.217V200.626ZM836.062 191.359V201.126H837.062V191.359H836.062ZM836.562 200.626H818.769V201.626H836.562V200.626ZM818.769 200.626C816.523 200.626 814.747 201.189 813.536 202.401C812.326 203.613 811.764 205.39 811.764 207.638H812.764C812.764 205.544 813.286 204.066 814.244 203.108C815.201 202.149 816.678 201.626 818.769 201.626V200.626ZM811.764 207.638V241.92H812.764V207.638H811.764ZM812.264 241.42H802.124V242.42H812.264V241.42ZM802.624 241.92V206.106H801.624V241.92H802.624ZM802.624 206.106C802.624 201.047 803.638 197.458 805.563 195.229L804.807 194.575C802.651 197.07 801.624 200.95 801.624 206.106H802.624ZM805.558 195.234C807.525 193.027 810.891 191.859 815.803 191.859V190.859C810.767 190.859 807.054 192.053 804.812 194.569L805.558 195.234ZM815.803 191.859H836.562V190.859H815.803V191.859ZM856.14 169.43V212.33H857.14V169.43H856.14ZM856.64 212.83H861.328V211.83H856.64V212.83ZM861.328 212.83C863.309 212.83 864.944 212.798 866.231 212.734L866.181 211.735C864.917 211.798 863.3 211.83 861.328 211.83V212.83ZM866.254 212.732C867.626 212.601 868.797 212.337 869.751 211.928L869.357 211.009C868.526 211.365 867.465 211.612 866.159 211.737L866.254 212.732ZM869.751 211.928C870.719 211.513 871.548 210.89 872.234 210.065L871.466 209.425C870.877 210.132 870.176 210.658 869.357 211.009L869.751 211.928ZM872.234 210.065C872.898 209.267 873.616 208.186 874.389 206.832L873.521 206.337C872.763 207.664 872.078 208.69 871.466 209.425L872.234 210.065ZM874.392 206.826L882.81 191.601L881.935 191.117L873.517 206.343L874.392 206.826ZM882.373 191.859H893.374V190.859H882.373V191.859ZM892.936 191.117L884.136 207.013L885.01 207.497L893.811 191.601L892.936 191.117ZM884.139 207.007C882.877 209.218 881.59 211.038 880.282 212.472L881.02 213.146C882.391 211.644 883.719 209.76 885.007 207.503L884.139 207.007ZM880.289 212.464C879.002 213.814 877.369 214.927 875.38 215.798L875.782 216.714C877.874 215.798 879.622 214.613 881.013 213.154L880.289 212.464ZM875.442 216.737C877.792 217.418 879.653 218.524 881.048 220.042L881.784 219.365C880.246 217.692 878.217 216.5 875.72 215.776L875.442 216.737ZM881.055 220.049C882.484 221.542 883.959 223.611 885.478 226.272L886.347 225.776C884.804 223.074 883.282 220.93 881.777 219.358L881.055 220.049ZM885.478 226.272L894.566 242.168L895.434 241.672L886.346 225.776L885.478 226.272ZM895 241.42H883.616V242.42H895V241.42ZM884.052 241.675L875.634 226.736L874.763 227.227L883.181 242.165L884.052 241.675ZM875.633 226.734C874.857 225.375 874.102 224.287 873.367 223.484L872.629 224.159C873.297 224.888 874.009 225.907 874.764 227.229L875.633 226.734ZM873.38 223.499C872.623 222.603 871.691 221.947 870.591 221.534L870.24 222.47C871.18 222.823 871.97 223.38 872.616 224.144L873.38 223.499ZM870.627 221.549C869.601 221.07 868.327 220.773 866.823 220.642L866.737 221.638C868.167 221.763 869.316 222.04 870.204 222.455L870.627 221.549ZM866.848 220.645C865.413 220.449 863.571 220.353 861.328 220.353V221.353C863.548 221.353 865.341 221.448 866.713 221.635L866.848 220.645ZM861.328 220.353H856.64V221.353H861.328V220.353ZM856.14 220.853V241.92H857.14V220.853H856.14ZM856.64 241.42H846.5V242.42H856.64V241.42ZM847 241.92V169.43H846V241.92H847ZM846.5 169.93H856.64V168.93H846.5V169.93Z" fill="black" mask="url(#path-1-inside-1_8322_7965)"/>
</svg>
