<svg width="542" height="99" viewBox="0 0 542 99" fill="none" xmlns="http://www.w3.org/2000/svg">
<mask id="path-1-inside-1_8322_7949" fill="white">
<path fill-rule="evenodd" clip-rule="evenodd" d="M108.375 1.34516C109.83 -0.448386 112.189 -0.448386 113.644 1.34516L149.405 45.4346C150.86 47.2282 150.86 50.1361 149.405 51.9296C147.95 53.7232 145.592 53.7232 144.137 51.9296L111.009 11.0877L42.1207 96.0191C40.6659 97.8127 38.3073 97.8127 36.8525 96.0191L1.09107 51.9296C-0.36369 50.1361 -0.36369 47.2282 1.09107 45.4346C2.54583 43.6411 4.90447 43.6411 6.35923 45.4346L39.4866 86.2766L108.375 1.34516Z"/>
<path fill-rule="evenodd" clip-rule="evenodd" d="M1.93398 2.38436C2.92321 1.16475 4.52709 1.16475 5.51632 2.38436L39.4866 44.2655L73.4568 2.38436C74.4461 1.16475 76.05 1.16475 77.0392 2.38436C78.0284 3.60397 78.0284 5.58134 77.0392 6.80095L41.2778 50.8904C40.2885 52.11 38.6847 52.11 37.6954 50.8904L1.93398 6.80095C0.944738 5.58134 0.944738 3.60397 1.93398 2.38436Z"/>
<path fill-rule="evenodd" clip-rule="evenodd" d="M148.562 94.9799C147.573 96.1995 145.969 96.1995 144.98 94.9799L111.009 53.0987L77.0392 94.9799C76.05 96.1995 74.4461 96.1995 73.4569 94.9799C72.4676 93.7603 72.4676 91.7829 73.4569 90.5633L109.218 46.4738C110.208 45.2542 111.811 45.2542 112.801 46.4738L148.562 90.5633C149.551 91.7829 149.551 93.7603 148.562 94.9799Z"/>
<path d="M254.3 4.82927C265.182 4.82927 273.054 7.34127 277.916 12.3653C282.778 17.2724 285.209 24.2242 285.209 33.2207C285.209 41.7498 282.836 48.3511 278.09 53.0246C273.343 57.5812 265.355 59.8596 254.126 59.8596H210.54V66.5193C210.54 70.2581 211.582 73.3542 213.666 75.8078C215.865 78.1446 219.512 79.3129 224.606 79.3129H280.694V97.3643H224.606C218.817 97.3643 213.897 96.6048 209.846 95.086C205.909 93.5671 202.61 91.464 199.948 88.7768C197.401 85.9727 195.548 82.7596 194.391 79.1377C193.233 75.3989 192.654 71.3096 192.654 66.8698V35.3238C192.654 31.0008 193.233 26.9699 194.391 23.2311C195.548 19.4923 197.401 16.2793 199.948 13.5921C202.61 10.788 205.909 8.62647 209.846 7.10758C213.897 5.58871 218.817 4.82927 224.606 4.82927H254.3ZM210.54 45.3133H253.605C258.583 45.3133 262.056 44.3202 264.024 42.334C266.108 40.3478 267.15 37.6605 267.15 34.2722C267.15 30.7671 266.108 27.963 264.024 25.8599C261.94 23.7569 258.641 22.7053 254.126 22.7053H224.606C219.512 22.7053 215.865 23.9321 213.666 26.3857C211.582 28.8393 210.54 31.8771 210.54 35.499V45.3133Z"/>
<path d="M314.77 5.35503L342.458 79.3714C343.268 81.4614 344.754 82.5065 346.914 82.5065C348.985 82.5065 350.471 81.4614 351.372 79.3714L380.41 5.35503H398.102L365.958 87.141C364.247 91.5029 361.816 94.5926 358.665 96.4101C355.603 98.1367 351.687 99 346.914 99C342.412 99 338.496 98.1821 335.164 96.5464C331.923 94.8198 329.447 91.6847 327.736 87.141L297.212 5.35503H314.77Z"/>
<path d="M427.57 5.35503V97.3643H411.633V5.35503H427.57Z"/>
<path d="M458.668 97.3643H441.11L473.119 15.5783C474.83 11.2164 477.216 8.17211 480.277 6.44551C483.429 4.62804 487.436 3.71931 492.298 3.71931C497.07 3.71931 500.987 4.62804 504.048 6.44551C507.199 8.17211 509.585 11.2164 511.206 15.5783L542 97.3643H524.307L496.62 23.3479C495.809 21.2579 494.324 20.2128 492.163 20.2128C490.002 20.2128 488.471 21.2579 487.571 23.3479L458.668 97.3643Z"/>
</mask>
<path fill-rule="evenodd" clip-rule="evenodd" d="M108.375 1.34516C109.83 -0.448386 112.189 -0.448386 113.644 1.34516L149.405 45.4346C150.86 47.2282 150.86 50.1361 149.405 51.9296C147.95 53.7232 145.592 53.7232 144.137 51.9296L111.009 11.0877L42.1207 96.0191C40.6659 97.8127 38.3073 97.8127 36.8525 96.0191L1.09107 51.9296C-0.36369 50.1361 -0.36369 47.2282 1.09107 45.4346C2.54583 43.6411 4.90447 43.6411 6.35923 45.4346L39.4866 86.2766L108.375 1.34516Z" fill="#1C1C1C"/>
<path fill-rule="evenodd" clip-rule="evenodd" d="M1.93398 2.38436C2.92321 1.16475 4.52709 1.16475 5.51632 2.38436L39.4866 44.2655L73.4568 2.38436C74.4461 1.16475 76.05 1.16475 77.0392 2.38436C78.0284 3.60397 78.0284 5.58134 77.0392 6.80095L41.2778 50.8904C40.2885 52.11 38.6847 52.11 37.6954 50.8904L1.93398 6.80095C0.944738 5.58134 0.944738 3.60397 1.93398 2.38436Z" fill="black"/>
<path fill-rule="evenodd" clip-rule="evenodd" d="M148.562 94.9799C147.573 96.1995 145.969 96.1995 144.98 94.9799L111.009 53.0987L77.0392 94.9799C76.05 96.1995 74.4461 96.1995 73.4569 94.9799C72.4676 93.7603 72.4676 91.7829 73.4569 90.5633L109.218 46.4738C110.208 45.2542 111.811 45.2542 112.801 46.4738L148.562 90.5633C149.551 91.7829 149.551 93.7603 148.562 94.9799Z" fill="black"/>
<path d="M254.3 4.82927C265.182 4.82927 273.054 7.34127 277.916 12.3653C282.778 17.2724 285.209 24.2242 285.209 33.2207C285.209 41.7498 282.836 48.3511 278.09 53.0246C273.343 57.5812 265.355 59.8596 254.126 59.8596H210.54V66.5193C210.54 70.2581 211.582 73.3542 213.666 75.8078C215.865 78.1446 219.512 79.3129 224.606 79.3129H280.694V97.3643H224.606C218.817 97.3643 213.897 96.6048 209.846 95.086C205.909 93.5671 202.61 91.464 199.948 88.7768C197.401 85.9727 195.548 82.7596 194.391 79.1377C193.233 75.3989 192.654 71.3096 192.654 66.8698V35.3238C192.654 31.0008 193.233 26.9699 194.391 23.2311C195.548 19.4923 197.401 16.2793 199.948 13.5921C202.61 10.788 205.909 8.62647 209.846 7.10758C213.897 5.58871 218.817 4.82927 224.606 4.82927H254.3ZM210.54 45.3133H253.605C258.583 45.3133 262.056 44.3202 264.024 42.334C266.108 40.3478 267.15 37.6605 267.15 34.2722C267.15 30.7671 266.108 27.963 264.024 25.8599C261.94 23.7569 258.641 22.7053 254.126 22.7053H224.606C219.512 22.7053 215.865 23.9321 213.666 26.3857C211.582 28.8393 210.54 31.8771 210.54 35.499V45.3133Z" fill="#1C1C1C"/>
<path d="M314.77 5.35503L342.458 79.3714C343.268 81.4614 344.754 82.5065 346.914 82.5065C348.985 82.5065 350.471 81.4614 351.372 79.3714L380.41 5.35503H398.102L365.958 87.141C364.247 91.5029 361.816 94.5926 358.665 96.4101C355.603 98.1367 351.687 99 346.914 99C342.412 99 338.496 98.1821 335.164 96.5464C331.923 94.8198 329.447 91.6847 327.736 87.141L297.212 5.35503H314.77Z" fill="#1C1C1C"/>
<path d="M427.57 5.35503V97.3643H411.633V5.35503H427.57Z" fill="#1C1C1C"/>
<path d="M458.668 97.3643H441.11L473.119 15.5783C474.83 11.2164 477.216 8.17211 480.277 6.44551C483.429 4.62804 487.436 3.71931 492.298 3.71931C497.07 3.71931 500.987 4.62804 504.048 6.44551C507.199 8.17211 509.585 11.2164 511.206 15.5783L542 97.3643H524.307L496.62 23.3479C495.809 21.2579 494.324 20.2128 492.163 20.2128C490.002 20.2128 488.471 21.2579 487.571 23.3479L458.668 97.3643Z" fill="#1C1C1C"/>
<path d="M113.644 1.34516L114.032 1.03019V1.03019L113.644 1.34516ZM108.375 1.34516L107.987 1.03019V1.03019L108.375 1.34516ZM149.405 45.4346L149.017 45.7496L149.405 45.4346ZM149.405 51.9296L149.793 52.2446L149.405 51.9296ZM144.137 51.9296L143.749 52.2446L144.137 51.9296ZM111.009 11.0877L111.398 10.7727C111.303 10.6556 111.16 10.5877 111.009 10.5877C110.859 10.5877 110.716 10.6556 110.621 10.7727L111.009 11.0877ZM42.1207 96.0191L42.509 96.3341L42.1207 96.0191ZM36.8525 96.0191L36.4642 96.3341L36.8525 96.0191ZM1.09107 51.9296L0.70275 52.2446L1.09107 51.9296ZM6.35923 45.4346L5.97091 45.7496L6.35923 45.4346ZM39.4866 86.2766L39.0983 86.5916C39.1932 86.7086 39.3359 86.7766 39.4866 86.7766C39.6373 86.7766 39.78 86.7086 39.8749 86.5916L39.4866 86.2766ZM5.51632 2.38436L5.128 2.69933L5.51632 2.38436ZM1.93398 2.38436L2.3223 2.69933L1.93398 2.38436ZM39.4866 44.2655L39.0983 44.5805C39.1932 44.6976 39.3359 44.7655 39.4866 44.7655C39.6373 44.7655 39.78 44.6976 39.8749 44.5805L39.4866 44.2655ZM73.4568 2.38436L73.0685 2.06939L73.4568 2.38436ZM77.0392 2.38436L76.6509 2.69933L77.0392 2.38436ZM77.0392 6.80095L76.6509 6.48598L77.0392 6.80095ZM41.2778 50.8904L41.6661 51.2054L41.2778 50.8904ZM37.6954 50.8904L38.0837 50.5755L37.6954 50.8904ZM1.93398 6.80095L2.3223 6.48598L1.93398 6.80095ZM144.98 94.9799L145.368 94.6649L144.98 94.9799ZM148.562 94.9799L148.174 94.6649L148.562 94.9799ZM111.009 53.0987L111.398 52.7838C111.303 52.6667 111.16 52.5987 111.009 52.5987C110.859 52.5987 110.716 52.6667 110.621 52.7838L111.009 53.0987ZM77.0392 94.9799L77.4275 95.2949L77.0392 94.9799ZM73.4569 94.9799L73.8452 94.6649L73.4569 94.9799ZM73.4569 90.5633L73.8452 90.8783L73.4569 90.5633ZM109.218 46.4738L108.83 46.1589L109.218 46.4738ZM112.801 46.4738L112.412 46.7888L112.801 46.4738ZM148.562 90.5633L148.95 90.2484L148.562 90.5633ZM277.916 12.3653L277.557 12.713L277.561 12.7172L277.916 12.3653ZM278.09 53.0246L278.436 53.3853L278.441 53.3809L278.09 53.0246ZM210.54 59.8596V59.3596H210.04V59.8596H210.54ZM213.666 75.8078L213.285 76.1315L213.293 76.1412L213.302 76.1505L213.666 75.8078ZM280.694 79.3129H281.194V78.8129H280.694V79.3129ZM280.694 97.3643V97.8643H281.194V97.3643H280.694ZM209.846 95.086L209.666 95.5525L209.67 95.5541L209.846 95.086ZM199.948 88.7768L199.577 89.1129L199.585 89.121L199.592 89.1287L199.948 88.7768ZM194.391 79.1377L193.913 79.2856L193.914 79.2899L194.391 79.1377ZM194.391 23.2311L194.868 23.379L194.391 23.2311ZM199.948 13.5921L199.585 13.2478L199.585 13.2481L199.948 13.5921ZM209.846 7.10758L209.67 6.63938L209.666 6.64111L209.846 7.10758ZM210.54 45.3133H210.04V45.8133H210.54V45.3133ZM264.024 42.334L263.679 41.9721L263.674 41.977L263.669 41.9821L264.024 42.334ZM264.024 25.8599L263.669 26.2119L264.024 25.8599ZM213.666 26.3857L213.293 26.0518L213.285 26.062L213.666 26.3857ZM314.77 5.35503L315.238 5.17985L315.117 4.85503H314.77V5.35503ZM342.458 79.3714L341.989 79.5466L341.991 79.5521L342.458 79.3714ZM351.372 79.3714L351.831 79.5692L351.834 79.5616L351.837 79.554L351.372 79.3714ZM380.41 5.35503V4.85503H380.069L379.944 5.17242L380.41 5.35503ZM398.102 5.35503L398.568 5.53793L398.836 4.85503H398.102V5.35503ZM365.958 87.141L365.493 86.9581L365.493 86.9585L365.958 87.141ZM358.665 96.4101L358.91 96.8456L358.915 96.8432L358.665 96.4101ZM335.164 96.5464L334.929 96.9877L334.936 96.9916L334.944 96.9952L335.164 96.5464ZM327.736 87.141L327.267 87.3159L327.268 87.3172L327.736 87.141ZM297.212 5.35503V4.85503H296.492L296.744 5.52986L297.212 5.35503ZM427.57 5.35503H428.07V4.85503H427.57V5.35503ZM427.57 97.3643V97.8643H428.07V97.3643H427.57ZM411.633 97.3643H411.133V97.8643H411.633V97.3643ZM411.633 5.35503V4.85503H411.133V5.35503H411.633ZM458.668 97.3643V97.8643H459.009L459.133 97.5462L458.668 97.3643ZM441.11 97.3643L440.644 97.1821L440.377 97.8643H441.11V97.3643ZM473.119 15.5783L472.654 15.3957L472.654 15.3961L473.119 15.5783ZM480.277 6.44551L480.523 6.88104L480.527 6.87864L480.277 6.44551ZM504.048 6.44551L503.793 6.87545L503.8 6.87986L503.808 6.88401L504.048 6.44551ZM511.206 15.5783L510.737 15.7524L510.738 15.7545L511.206 15.5783ZM542 97.3643V97.8643H542.723L542.468 97.1881L542 97.3643ZM524.307 97.3643L523.839 97.5395L523.96 97.8643H524.307V97.3643ZM496.62 23.3479L497.088 23.1728L497.086 23.1672L496.62 23.3479ZM487.571 23.3479L487.111 23.1501L487.108 23.158L487.105 23.1661L487.571 23.3479ZM114.032 1.03019C113.219 0.0274512 112.127 -0.5 111.009 -0.5C109.892 -0.5 108.8 0.0274512 107.987 1.03019L108.764 1.66013C109.405 0.86932 110.221 0.5 111.009 0.5C111.798 0.5 112.614 0.86932 113.255 1.66013L114.032 1.03019ZM149.793 45.1197L114.032 1.03019L113.255 1.66013L149.017 45.7496L149.793 45.1197ZM149.793 52.2446C151.397 50.2675 151.397 47.0968 149.793 45.1197L149.017 45.7496C150.323 47.3596 150.323 50.0047 149.017 51.6147L149.793 52.2446ZM143.749 52.2446C144.562 53.2473 145.653 53.7748 146.771 53.7748C147.889 53.7748 148.98 53.2473 149.793 52.2446L149.017 51.6147C148.375 52.4055 147.56 52.7748 146.771 52.7748C145.982 52.7748 145.167 52.4055 144.525 51.6147L143.749 52.2446ZM110.621 11.4026L143.749 52.2446L144.525 51.6147L111.398 10.7727L110.621 11.4026ZM36.4642 96.3341C37.2775 97.3368 38.3688 97.8643 39.4866 97.8643C40.6044 97.8643 41.6957 97.3368 42.509 96.3341L41.7323 95.7042C41.0909 96.495 40.2755 96.8643 39.4866 96.8643C38.6977 96.8643 37.8823 96.495 37.2408 95.7042L36.4642 96.3341ZM0.70275 52.2446L36.4642 96.3341L37.2408 95.7042L1.47939 51.6147L0.70275 52.2446ZM0.70275 45.1197C-0.900917 47.0968 -0.900917 50.2675 0.70275 52.2446L1.47939 51.6147C0.173536 50.0047 0.173536 47.3596 1.47939 45.7496L0.70275 45.1197ZM6.74755 45.1197C5.93422 44.1169 4.84293 43.5895 3.72515 43.5895C2.60737 43.5895 1.51608 44.1169 0.70275 45.1197L1.47939 45.7496C2.12082 44.9588 2.93623 44.5895 3.72515 44.5895C4.51407 44.5895 5.32948 44.9588 5.97091 45.7496L6.74755 45.1197ZM39.8749 85.9617L6.74755 45.1197L5.97091 45.7496L39.0983 86.5916L39.8749 85.9617ZM42.509 96.3341L111.398 11.4026L110.621 10.7727L41.7323 95.7042L42.509 96.3341ZM107.987 1.03019L39.0983 85.9617L39.8749 86.5916L108.764 1.66013L107.987 1.03019ZM5.90464 2.06939C5.32408 1.35362 4.53785 0.96965 3.72515 0.96965C2.91245 0.96965 2.12622 1.35362 1.54566 2.06939L2.3223 2.69933C2.73097 2.19549 3.2413 1.96965 3.72515 1.96965C4.209 1.96965 4.71933 2.19549 5.128 2.69933L5.90464 2.06939ZM73.0685 2.06939L39.0983 43.9506L39.8749 44.5805L73.8452 2.69933L73.0685 2.06939ZM77.4275 2.06939C76.847 1.35362 76.0607 0.96965 75.248 0.96965C74.4353 0.96965 73.6491 1.35362 73.0685 2.06939L73.8452 2.69933C74.2538 2.19549 74.7642 1.96965 75.248 1.96965C75.7319 1.96965 76.2422 2.19549 76.6509 2.69933L77.4275 2.06939ZM77.4275 7.11592C78.5657 5.71273 78.5657 3.47258 77.4275 2.06939L76.6509 2.69933C77.4912 3.73536 77.4912 5.44995 76.6509 6.48598L77.4275 7.11592ZM41.6661 51.2054L77.4275 7.11592L76.6509 6.48598L40.8894 50.5755L41.6661 51.2054ZM37.3071 51.2054C37.8877 51.9212 38.6739 52.3051 39.4866 52.3051C40.2993 52.3051 41.0855 51.9212 41.6661 51.2054L40.8894 50.5755C40.4808 51.0793 39.9704 51.3051 39.4866 51.3051C39.0027 51.3051 38.4924 51.0793 38.0837 50.5755L37.3071 51.2054ZM1.54566 2.06939C0.407512 3.47258 0.407512 5.71273 1.54566 7.11592L2.3223 6.48598C1.48196 5.44995 1.48196 3.73536 2.3223 2.69933L1.54566 2.06939ZM39.8749 43.9506L5.90464 2.06939L5.128 2.69933L39.0983 44.5805L39.8749 43.9506ZM1.54566 7.11592L37.3071 51.2054L38.0837 50.5755L2.3223 6.48598L1.54566 7.11592ZM144.591 95.2949C145.172 96.0107 145.958 96.3946 146.771 96.3946C147.584 96.3946 148.37 96.0107 148.95 95.2949L148.174 94.6649C147.765 95.1688 147.255 95.3946 146.771 95.3946C146.287 95.3946 145.777 95.1688 145.368 94.6649L144.591 95.2949ZM110.621 53.4137L144.591 95.2949L145.368 94.6649L111.398 52.7838L110.621 53.4137ZM77.4275 95.2949L111.398 53.4137L110.621 52.7838L76.6509 94.6649L77.4275 95.2949ZM73.0685 95.2949C73.6491 96.0107 74.4353 96.3946 75.248 96.3946C76.0607 96.3946 76.847 96.0107 77.4275 95.2949L76.6509 94.6649C76.2422 95.1688 75.7319 95.3946 75.248 95.3946C74.7642 95.3946 74.2539 95.1688 73.8452 94.6649L73.0685 95.2949ZM73.0685 90.2484C71.9304 91.6516 71.9304 93.8917 73.0685 95.2949L73.8452 94.6649C73.0049 93.6289 73.0049 91.9143 73.8452 90.8783L73.0685 90.2484ZM108.83 46.1589L73.0685 90.2484L73.8452 90.8783L109.607 46.7888L108.83 46.1589ZM113.189 46.1589C112.608 45.4431 111.822 45.0591 111.009 45.0591C110.197 45.0591 109.411 45.4431 108.83 46.1589L109.607 46.7888C110.015 46.285 110.526 46.0591 111.009 46.0591C111.493 46.0591 112.004 46.285 112.412 46.7888L113.189 46.1589ZM148.95 90.2484L113.189 46.1589L112.412 46.7888L148.174 90.8783L148.95 90.2484ZM148.95 95.2949C150.089 93.8917 150.089 91.6516 148.95 90.2484L148.174 90.8783C149.014 91.9143 149.014 93.6289 148.174 94.6649L148.95 95.2949ZM254.3 5.32927C265.12 5.32927 272.83 7.82892 277.557 12.713L278.275 12.0175C273.278 6.85361 265.243 4.32927 254.3 4.32927V5.32927ZM277.561 12.7172C282.305 17.5049 284.709 24.3146 284.709 33.2207H285.709C285.709 24.1339 283.252 17.0399 278.271 12.0133L277.561 12.7172ZM284.709 33.2207C284.709 41.6553 282.365 48.1133 277.739 52.6683L278.441 53.3809C283.307 48.5889 285.709 41.8443 285.709 33.2207H284.709ZM277.743 52.6639C273.137 57.0859 265.311 59.3596 254.126 59.3596V60.3596C265.4 60.3596 273.549 58.0765 278.436 53.3853L277.743 52.6639ZM254.126 59.3596H210.54V60.3596H254.126V59.3596ZM210.04 59.8596V66.5193H211.04V59.8596H210.04ZM210.04 66.5193C210.04 70.3564 211.112 73.5732 213.285 76.1315L214.047 75.4842C212.052 73.1353 211.04 70.1597 211.04 66.5193H210.04ZM213.302 76.1505C215.639 78.6334 219.453 79.8129 224.606 79.8129V78.8129C219.571 78.8129 216.092 77.6557 214.03 75.4651L213.302 76.1505ZM224.606 79.8129H280.694V78.8129H224.606V79.8129ZM280.194 79.3129V97.3643H281.194V79.3129H280.194ZM280.694 96.8643H224.606V97.8643H280.694V96.8643ZM224.606 96.8643C218.858 96.8643 214.001 96.1098 210.021 94.6178L209.67 95.5541C213.793 97.0998 218.776 97.8643 224.606 97.8643V96.8643ZM210.026 94.6195C206.148 93.1231 202.91 91.0565 200.303 88.4248L199.592 89.1287C202.31 91.8715 205.671 94.0111 209.666 95.5524L210.026 94.6195ZM200.318 88.4406C197.819 85.6897 196.003 82.5395 194.867 78.9855L193.914 79.2899C195.094 82.9798 196.982 86.2556 199.577 89.1129L200.318 88.4406ZM194.868 78.9898C193.727 75.3048 193.154 71.2661 193.154 66.8698H192.154C192.154 71.3531 192.739 75.493 193.913 79.2856L194.868 78.9898ZM193.154 66.8698V35.3238H192.154V66.8698H193.154ZM193.154 35.3238C193.154 31.0457 193.727 27.0652 194.868 23.379L193.913 23.0832C192.739 26.8746 192.154 30.9558 192.154 35.3238H193.154ZM194.868 23.379C196.005 19.7092 197.819 16.5644 200.31 13.936L199.585 13.2481C196.982 15.9942 195.092 19.2754 193.913 23.0832L194.868 23.379ZM200.31 13.9363C202.917 11.1908 206.152 9.06872 210.026 7.57406L209.666 6.64111C205.667 8.18422 202.303 10.3852 199.585 13.2478L200.31 13.9363ZM210.021 7.57577C214.001 6.08371 218.858 5.32927 224.606 5.32927V4.32927C218.776 4.32927 213.793 5.09371 209.67 6.6394L210.021 7.57577ZM224.606 5.32927H254.3V4.32927H224.606V5.32927ZM210.54 45.8133H253.605V44.8133H210.54V45.8133ZM253.605 45.8133C258.621 45.8133 262.267 44.8182 264.379 42.6859L263.669 41.9821C261.846 43.8222 258.545 44.8133 253.605 44.8133V45.8133ZM264.369 42.6959C266.569 40.5986 267.65 37.771 267.65 34.2722H266.65C266.65 37.55 265.646 40.0969 263.679 41.9721L264.369 42.6959ZM267.65 34.2722C267.65 30.6613 266.573 27.7217 264.379 25.508L263.669 26.2119C265.643 28.2043 266.65 30.8729 266.65 34.2722H267.65ZM264.379 25.508C262.162 23.2705 258.706 22.2053 254.126 22.2053V23.2053C258.576 23.2053 261.718 24.2433 263.669 26.2119L264.379 25.508ZM254.126 22.2053H224.606V23.2053H254.126V22.2053ZM224.606 22.2053C219.447 22.2053 215.629 23.4463 213.294 26.052L214.038 26.7195C216.101 24.418 219.577 23.2053 224.606 23.2053V22.2053ZM213.285 26.062C211.115 28.6174 210.04 31.7743 210.04 35.499H211.04C211.04 31.9798 212.05 29.0612 214.047 26.7094L213.285 26.062ZM210.04 35.499V45.3133H211.04V35.499H210.04ZM314.302 5.53021L341.989 79.5465L342.926 79.1962L315.238 5.17985L314.302 5.53021ZM341.991 79.5521C342.424 80.6675 343.051 81.5403 343.892 82.1317C344.734 82.724 345.751 83.0065 346.914 83.0065V82.0065C345.917 82.0065 345.111 81.7665 344.467 81.3138C343.822 80.8601 343.302 80.1653 342.924 79.1906L341.991 79.5521ZM346.914 83.0065C348.038 83.0065 349.031 82.7215 349.87 82.1317C350.705 81.544 351.353 80.6778 351.831 79.5692L350.912 79.1735C350.49 80.155 349.945 80.8563 349.294 81.3138C348.647 81.769 347.862 82.0065 346.914 82.0065V83.0065ZM351.837 79.554L380.875 5.53764L379.944 5.17242L350.906 79.1888L351.837 79.554ZM380.41 5.85503H398.102V4.85503H380.41V5.85503ZM397.637 5.17214L365.493 86.9581L366.423 87.3239L398.568 5.53793L397.637 5.17214ZM365.493 86.9585C363.811 91.2456 361.443 94.2307 358.415 95.977L358.915 96.8432C362.189 94.9546 364.683 91.7603 366.424 87.3236L365.493 86.9585ZM358.419 95.9746C355.455 97.6465 351.63 98.5 346.914 98.5V99.5C351.743 99.5 355.752 98.6269 358.91 96.8456L358.419 95.9746ZM346.914 98.5C342.473 98.5 338.634 97.6932 335.385 96.0976L334.944 96.9952C338.357 98.6711 342.352 99.5 346.914 99.5V98.5ZM335.399 96.1051C332.296 94.4519 329.886 91.432 328.204 86.9648L327.268 87.3172C329.008 91.9374 331.55 95.1877 334.929 96.9877L335.399 96.1051ZM328.204 86.9662L297.681 5.18021L296.744 5.52986L327.267 87.3159L328.204 86.9662ZM297.212 5.85503H314.77V4.85503H297.212V5.85503ZM427.07 5.35503V97.3643H428.07V5.35503H427.07ZM427.57 96.8643H411.633V97.8643H427.57V96.8643ZM412.133 97.3643V5.35503H411.133V97.3643H412.133ZM411.633 5.85503H427.57V4.85503H411.633V5.85503ZM458.668 96.8643H441.11V97.8643H458.668V96.8643ZM441.575 97.5465L473.585 15.7605L472.654 15.3961L440.644 97.1821L441.575 97.5465ZM473.585 15.7608C475.267 11.4702 477.591 8.53473 480.523 6.88102L480.032 6.01C476.841 7.80948 474.392 10.9625 472.654 15.3957L473.585 15.7608ZM480.527 6.87864C483.581 5.11731 487.495 4.21931 492.298 4.21931V3.21931C487.376 3.21931 483.276 4.13878 480.028 6.01238L480.527 6.87864ZM492.298 4.21931C497.01 4.21931 500.831 5.1169 503.793 6.87545L504.303 6.01557C501.143 4.13919 497.13 3.21931 492.298 3.21931V4.21931ZM503.808 6.88401C506.826 8.53751 509.146 11.4693 510.738 15.7524L511.675 15.4041C510.025 10.9635 507.573 7.8067 504.288 6.00701L503.808 6.88401ZM510.738 15.7545L541.532 97.5405L542.468 97.1881L511.674 15.4021L510.738 15.7545ZM542 96.8643H524.307V97.8643H542V96.8643ZM524.775 97.1891L497.088 23.1728L496.151 23.5231L523.839 97.5395L524.775 97.1891ZM497.086 23.1672C496.653 22.0518 496.026 21.179 495.185 20.5876C494.343 19.9953 493.326 19.7128 492.163 19.7128V20.7128C493.16 20.7128 493.966 20.9528 494.61 21.4056C495.255 21.8593 495.776 22.554 496.154 23.5287L497.086 23.1672ZM492.163 19.7128C490.999 19.7128 489.974 19.9955 489.112 20.5837C488.252 21.1707 487.591 22.0379 487.111 23.1501L488.03 23.5458C488.451 22.5679 489.005 21.8676 489.676 21.4095C490.345 20.9527 491.166 20.7128 492.163 20.7128V19.7128ZM487.105 23.1661L458.202 97.1824L459.133 97.5462L488.036 23.5298L487.105 23.1661Z" fill="black" mask="url(#path-1-inside-1_8322_7949)"/>
</svg>
