<svg width="331" height="213" viewBox="0 0 331 213" fill="none" xmlns="http://www.w3.org/2000/svg">
<path fill-rule="evenodd" clip-rule="evenodd" d="M238.36 2.94275C241.56 -0.980916 246.747 -0.980916 249.947 2.94275L328.6 99.3956C331.8 103.319 331.8 109.681 328.6 113.604C325.401 117.528 320.213 117.528 317.014 113.604L244.153 24.256L92.6399 210.057C89.4403 213.981 84.2527 213.981 81.0532 210.057L2.39969 113.604C-0.799898 109.681 -0.799898 103.319 2.39969 99.3956C5.59929 95.4719 10.7869 95.4719 13.9864 99.3956L86.8465 188.744L238.36 2.94275Z" fill="#1C1C1C"/>
<path fill-rule="evenodd" clip-rule="evenodd" d="M4.25362 5.2164C6.42934 2.54831 9.95689 2.54831 12.1326 5.2164L86.8466 96.8382L161.561 5.2164C163.736 2.54831 167.264 2.54831 169.44 5.2164C171.615 7.88449 171.615 12.2103 169.44 14.8784L90.7861 111.331C88.6104 113.999 85.0828 113.999 82.9071 111.331L4.25362 14.8784C2.0779 12.2103 2.0779 7.88449 4.25362 5.2164Z" fill="black"/>
<path fill-rule="evenodd" clip-rule="evenodd" d="M326.746 207.784C324.571 210.452 321.043 210.452 318.867 207.784L244.153 116.162L169.439 207.784C167.264 210.452 163.736 210.452 161.56 207.784C159.385 205.116 159.385 200.79 161.56 198.122L240.214 101.669C242.39 99.0011 245.917 99.0011 248.093 101.669L326.746 198.122C328.922 200.79 328.922 205.116 326.746 207.784Z" fill="black"/>
</svg>
